<mxfile host="65bd71144e">
    <diagram id="pSfHKPpHlpqAjV1Fe4Pd" name="tiscon_sourcecode">
        <mxGraphModel dx="2853" dy="900" grid="1" gridSize="10" guides="1" tooltips="1" connect="1" arrows="1" fold="1" page="1" pageScale="1" pageWidth="827" pageHeight="1169" math="0" shadow="0">
            <root>
                <mxCell id="0"/>
                <mxCell id="1" parent="0"/>
                <mxCell id="4" value="" style="shape=image;verticalLabelPosition=bottom;labelBackgroundColor=default;verticalAlign=top;aspect=fixed;imageAspect=0;image=data:image/png,iVBORw0KGgoAAAANSUhEUgAAAhsAAASdCAYAAADpHp5CAAAAAXNSR0IArs4c6QAAAARnQU1BAACxjwv8YQUAAAAJcEhZcwAADsMAAA7DAcdvqGQAAOmISURBVHhe7P0PdFvXfSf6fh1L6rNcK4FZjqnGBob1TJ3CvBlr5BAMW5AzD5lZRO6L7/KECNgnZhI7Mwz9UlSuAjgVmSZyE1Gxgaqh2a4wnI7tTKg7RMHEy86agO/auFOSLYdgn0e6NQ3Vk6YsILmihuWFLDuyLFvO2/ucfYADEADBP4f/9P10ITr/zwGken/x2/vg3PT666//HEREREQWuenq1avbNmwsLi6ipqZGzREREdFW9AH1JxEREZElGDaIiIjIUgwbREREZCmGDSIiIrIUwwYRERFZimGDiIiILMWwQURERJZi2CAiIiJLMWwQERGRpRg2iIiIyFIMG0RERGQpho3taHYQHo8HPWNZtYCIiGjrYthYR6khDwZn1YyFUucdGE0k0IlpMG4QEdFWt8anvp7G0CND4n9X6wC6vtMl/nd1ttZTX1MY9AQQU3N5LgRH+uCtBbJjPWgPJ9XyIo1BjJ7wwianZeXi8NIjFXOFRtHXBsSPtiMyoxaW4h9AosupZqpX8XoF/fzaFRMREZXFR8wvkV2+8TYHA0VWNSaaE+huUAs08lhh4IgeNsqRjXr0zr6ifcuRoWYCLYlu6PFBniMKxwljvshCHD3POdC3irBBRES0HtiNsoQN3hMJJBLGawA+8X8DuXnxKgoaMiwEMLA0LCxMYxJuNFUIGjI8RMfd8FcVNISFNDKNDuxXs0RERFsdw8ZazQ6iXYSF0RKVg+zLk0BrU0EwKZYaCgCHCsNLJdUcc33IiolHG4ha9nU0zjEjREQ3lCwSX/XC+9WE6b//FZZ9OY55MccxG8sq7rYwkV0UJ4FQUaVDJ/cbhkON1yhFVkTCCK1g3EOpbpmVdKOUG1diUqKLqKSC976OxyUioi1Mhoj/NyII4n//pkf9N73Csrd/G8/8gZdjNpZXIWxUIMdwDNvLD6DUBl9m3AjORTDZWt1AS32fzqLBnpszZmNl40yIiOhGxm6Udad3P8gxHKUDhL5eVjQSXV5tfEhnph2eoZRaX5oML+W6azac6jqqepwJERHd0FjZKCIb9UBUzVRS4nZSY9+yt4SqW1p9/cV3rVSqWqg7Y8revmrappxV3vq6hKySdESQ1AbMrqzSQ0RENy6O2VgPKkRU+t0JLYigcqOfH8NxITcGYrN/y0ILQbnf2mDIICKilWNlg4iIiCzFMRtERERkKYYNIiIishTDBhEREVmKYYOIiIgsxbBBRERElmLYICIiIksxbBAREZGlGDaIiIjIUgwbREREZCmGDSIiIrIUwwYRERFZ6gP/jy/+GeSLiIiIyAqsbBAREZGlGDaIiIjIUgwbREREZCmGDSIiIrIUwwYRERFZimGDiIiILHUTPjf2czlx9bv/QluwnSwuLqKmpkbNrY/4UQ8iM2rGxNefQMuUB4GoDwOJbjjFsuxYD9rDSX0DQW7T3aBPp4bktvq05AqNoq/NJqZSGPQEENMXC/njiSOK87dr589vb5wHCI70wVurLQIW4ujpiMBuOmfhsV2F2xtmB+E5LLcwrVfHMr2Tsu/RfF35Y5n4B5Do0t/N0vX5cxZ+Pmr5xaXHM3+mJa/dUPI9+JFWn2eOcX3F25uvu6z830/B9upYKPl3FgJOFl2Dor830zE15vdmXmf+d2L+e1luefG/N4M8j7o2BDF6wgt15UXXY1ynmhGK/21LxdtU/ncuVXrfy59DX190zCX/BvR99P+/FTON5vdJRBtpZ1Y2rqs/KymzjfdEAolEAgN+OSf/Y6bPF/6HVBANn/yPuvyPmVyfGAnCoa2Q/xE1/kOo1iUG4NbWqf8Ay4ZKWz6KYGMMAc+gWFMoGY4uWZZT4j+q+nnFseV/ULXjJhE5GRdLS5HXpv7DLhtw1VDq15TAaEi9k1yDqd5Hv09cVzt6xgqPav4MXNEAPEcLz5tbr84pjxuIysZFLe/XPx2Dsb38O4gdzn82qSmj6Upi8mXTGSq8B432mahzaQFB/D3Iz8/892DXN61oYRqTRuMYnSj/91PAVuHflGpwZWOvlg34xd9bRw/iC9rOJjFMzKpJ8elOjxf+7evMy43tnejWji3/TYjZ3GdRFNY08t9n4fXk/10Xy7+P0ZBL/D15TP8ulvt3Xu37rnSO8mQg1s+r//+ts0vfn4g2zw4MG1kkjncjMj6v5peaf+kYHn5ysqBBXKns+YyaUmq98MpAMhvVvq35+s3f4pzwim+82bFh0QSIRvZBY41oiI6IBlosHTb/R7TRpS0LDJVqzvSG0u73qXlFNYSu1iZxVBuaWsV/XGcmMb2k0TIT/9E/JRpw0QCFjGqFYGvziitOISq/Ifs7841SQ7fWYJYNQuIzCMn/qC9z3guZooayQXx2Sxo+YL9dNhAZpLVjpTAhv536g1qjmRyfVn9/ld5DGQtpcVQz8ffQpkKIxwNPyc9dnOnlSRFzxN9fSH725sZ/lYx/K4fy37adXQOiiRUN73Oma9D+PYgzTqll2t+1WCbDg5nxbyAUFMcwbV+l3L/PI6Zv/8a/6wpsbaGCv5Nl/51X+75Nis9BRNvLDgwbNnh6j+HeF4+VDBwyaBw/7UHfY+78f1BXwXbQrTcA4tuWx1SZ0L99u+C4Q5/PM7512uEwN6y1DrFE/Ec0c0Gf17gR6hfNRTSAwSUNmv5NtbtZzRouprVKh/1O87tKIn1RTZZifFOvdyz9LGYnRNMg3ol9vz6vFAaApWx3au+m4Lz6Z5T/nJzNsimU32TFsqIqiJkeStTnpa7H1+wtDFKV3oNhJoJ27fzqm3FtE9yyoZZVGLFs6Wdcivr7a3Sjqa1lVY15sdL/VvbDIa9tLm36XNxwy6qIqqZooUdch7teW5ljhCH3QS9aTNtXp8y/z6rY4JDXMpPGhSr+nVf/vs3M56hMVt/0f2+lKkREtBl2ZjfKzXXwPr40cMyPRxARQaP3iBt1N6uFqyW+8fUZpWnRDAYKGq0K/8FudIj/rFahwa8dW3YjTKtFVikOFGaF4WV18t0oqtrT0C2m5TdZQQsChY2CEU70rhZ9H72B8qFFfMs2Ao25K6XSezB3o+hjKvSuDaO0rp1Pq2aoLodSYzcKKkeqYVxRY15OdY17kxbQZDVFb8zldRR2b5jCkDieHgpXUX2p9t/ncpY9zmpCTXXy3SiluoqIaDOsb9j42Rl85zP34J57lnl95js48zO1j1VU4DgwflwLHFrQmJEl4nUIGjmqP16OVRBz8ptu+f/IG9/MiroYVEnf11zcwOVLzxHTAM2y7nBo15A5b/5eWKrCYmJ82yxVmlbHK/72rlUbVINWit69tMx5NaphlxWcouBQPMYj14WiQp0xiFS77krvYRm2tj5xDhUYlwkOetVAnEf71mwMbCzfmBdUZcoo/W/lAtK5UGPSoKopp8JaF4r7YFEINCo8qopjDOqtvvpS5t9nVbJIz4k/tICx/L/zFb3vHPM5iGi7WcewcR6jwS/h//jHj+Aroa+UeR1Cq9z0//o2/A9tTODw9PaKwPFF9Kxz0MiODS4p0cpv17a2Tr1RMA1slAM6B8eycD4ow4O5XzqL+MkIkuKbt79Uv7gxBqIaqmtAb3QLv+WW54RfG2MRQdg0ZiQ1JK5dnLtTK8UP59/n7KA2qt/c115ADZotGOdRgnZ8NW2oWEExulByIUQNttQatArvQU0vof4+CmiNWLkxG8bnWThwUmsyZWNe8NlLxviSFr2SU0bu38qpfFdSakjeweFDp2n8ic54n0mtC6X47zU3nsQYdFtliDLL/fs0DywWf6fLdTOlhvTwZfy7WO7f+cret674HES0vaxj2PgHLPyf/4A7Wzrx8L97uMzrARwQW/7r0HE8gg0MHF97Hk+H1rOiIWX0MQeycZJ3NuQGKMpv7Mbo+/x6bUCi1vUyAJ8aK6B9Qy647XApY2Dc8lQlRPtmK//D7MNAFbf5ad/u1V0m+jXlbznUR/Ej/z4Pi+ZANPjFd+bkxmSI9VoJu6gbIj9mw+hqMn02skrhH1h6t0+OGgAqmi9ztcQY9yErIpXeg0Z929fWqTEimdy28rOSQbTCZ6UGNBaMC8mN+5CNuaxwib/X3HnUXUHL3kqr/q2IfwXG9S25ndPEGCe09Nu/GsxbUElRg4SXVBAqMP59mj8vVUVaKv93aNxZlPs7XPbfebXvu8I5NKZ/R6ZxU+Z/B9XcvUJE1lvH39k4g+/c40fqD/4CA/+vX1LLipm2+fW/wbe/+Dl8B48i+swjuO9WtckKWPE7GzuevE30MMo2aEQ7kXYb97ibv7NBtEk2ZYDo+YlhPP2DFH7hnibVpXIKP1XraCPIb4QcqU83BvkDYMYYFiLaHJtS2fi2mst7FNHXHsF9aq5arGwQERFtfaurbJS866RUiCh2Hx557TW8Znr9xR/8a7WOiIiIdqJVhI1yd52oO02IiIiITFYRNsrddaLfaUJERERktikDRImIiOjGwbBBRERElmLYICIiIksxbBAREZGlGDaIiIjIUgwbREREZCmGDSIiIrLUKn6uvNzPkv8Upz7zSYz+40fwqV/dp5Yt7/L/+BG+83ft+PGfHsLdalm1LPm58mwSTz3zFj5z2LOuT4mVD4IKI4S+Mo/Q3ur4ICsiIlqtdQwbgvwZ84f8+Pb/pear8UufQuRPI/jUh9X8Clj1bJT5l46hZ8qNvt71CxxbMmwsxNHTkUYnnwBLREQWWt9ulFvvwyN/Wvjsk8JnoMgHrhWt+4vVBQ0r1X3iGPqaJ3H85CTmr6uFREREtCocs1GGDBy9jUlEVhs4ZNXA44FHvo7GcUEtNshKh7ZOvoZS+sLZQW3brD6nkY/HHpxVM3K9sY9nEGqvwmMVPDo+hUE5P2u6FvO5OiJIao+b96BnTD9r4bGKzmHsq703sc50Pcb+Onle4xim61H7xdU5cu+LiIh2NIaNCupagwiqwGFuSpcnGtuOSbhHEkgkxOsIMBxOqnWCaKS18Q9ynXgNIKA31g0t8M1MYtoUFiaiPrQ0iEnZsB8GBtQ+oyGHvok8VtieW54YcWOyIx8SIOJE5BQQ0tYPwBcN6I18Q7fYNggXfNq+evdOFtMZ03X5RRAxAsYSYt1UizpnEAiHVajIIn40APSXu54YJhHS1nXL90VERDsew0YV3nn7mpqqTnZsGDF/J7y1akGtF6GQS82IxvhUDL5D+YGWzmYfkhlZ+3CixZ9E+qK+HLMT4jgt2niK1JTYpz8/tsLW5hXT6lim5fJcnSIkTOSqBi4EjxjnkscHMufLRScbvF2F11WeCCld6qy1TXCLUKZd92wUEQThN4KEti6DdC5A+dC5TQfJEhHR6qwibNyGff8MOD8xjKf/5OmqX8MT54F/tk/svX3Mj0dw7MV70dvrWfEdGC77fjVVWuyw0c0gXodjwFxaq57IBj42JesAMkhkEHxQNuhZpOdccNwh9yy2dPl+u6tsoJDrKjJ1jWjXVRUbHPVqUpqJoN04hqcdkRlTgCIiohvOKsLG3Tj0TBT/+u++gyfCT1T9+s7fteJ731357a2bxQgaxx73ruqOFL1SkXchY+pGkdUGo4vFeBm3lMqulOgEUgvTmIQbTUZ1BOUa7KXL5bnsd66ieiCDxilHrhsl0V+pslGBf6DwvYkXu0yIiG5cq+tGqXDXSdnXnz6Kpm1SPV9V0DAGTYpJ20E3XNHhgoGRw1E1LSJFUysQOVk4EDRPdnXEMPFcGmhtUhUVuY8LscPmAZtxMb10uX4uNc5jhbLnM0C9Q51T77pZMS0sqXEhREREAsdsFMtO4unx1Vc0NLVe9PXbEelQXQkngc7cmA0RHdr6MFBv7moovDND60qJZuA+mE9ncp/RUEa7c0Ru3z4OyI6a4uWelfxuhhrfYdyNYmsLITgXyF3TBFZT2XCieySIjLmbqOgOGyIiurGs4ke9tg6rftSLiIiI1g8rG0RERGQphg0iIiKyFMMGERERWYphg4iIiCzFsEFERESWYtggIiIiSzFsEBERkaUYNoiIiMhSDBtERERkqZuuXr2q/YLodsRfECUiItr6WNkgIiIiSzFsFMsm8dTJBOavq3kiIiJaE4aNYjYXPvPRSfQcZ+AgIiJaDwwbJdR94hj6midx/OQkAwcREdEaMWyUIQNHb2MSkdUEjoU4ejyDiI/1wOPxiFcP4gtAtmheSg150DOW1Wc0KQyKfVNySluXQvyo3Ee+9OVERETbCcNGBXWtQQRV4DDHgerEMIkQEokERkNApMODsHn+ZFw7prPZh+T4dP74sxOI+VvgVLPJ8DBwJKHtN+CPITDEuEFERNsLw0YV3nn7mppaCR8622zalO2gG67i+Zk0LsiZhhb4jGkhNRWDr9mIGoArFIK3Vp+WwQRz6VUEHyIios3DsFHB/HgEx168F729HugxwQpOtPhjmJgVkwtxDM8F4W/Q1yxxh0OEFiIiou2FYaMMI2gce9yLupvVQovIikVsKoXsy5NAa5OFwYaIiGjjMWyUsKqgoQaFrmpEhexKiU4gmgHcBxk1iIhoZ2HYKJadxNPjG1PRyNO7UmJzbjSp8RlEREQ7hbXPRrl8DlMvvYA/+8u/xfylK3hXLvuFfai78yP49f/102j9tX3YrW24Onw2ChER0dZnUdi4grkfD2Hwv7yGy+/vxl7HPWio26uvemcBPz07h8V3gN11zej8rc+icZV5gWGDiIho67MgbFzB6T/5PQy9fAU1rofwW7/ZiLpfUKty3sXlsy/h6f/4Al67dhce+N0eeH9ZrVoBhg0iIqKtb93HbMz/+NsiaAD3fObr+ObnSwUNaTf2/ZoXj/5+Fw7sOYcXTg7h9BW1ioiIiHaU9Q0bl8bxn/7LOex1PYQv/cs6tbCCvQfQdeQB3PX2aQw/95paSERERDvJuoaNc//ni5hDAz79mYbqB37+she/+S9rcGXqJcy8o5YRERHRjrGOYWMRs3+9CPzaAXxMjQWtVv3BA9j3/ixeZXGDiIhox1nHsJHBuXNA3a/8yspvZ3XchbvFHxf+XoQVIiIi2lHWfYDoqnxAjyfvvq/9EgcRERHtIOsYNvbilr3A5ewban4FLl/GJfHHL9l4GysREdFOs45h41dwdz1w5ewszqkl1Xr31VnMoQ6/Ur+W3xMlIiKirWgdw8ZufOxjDcDiFOJnVtIdMo+X/o9ZwPHr+PUq7pYlIiKi7WVdx2zsdn0aD9RdwenhZ6r+ka75Hz+NF+b3ovGTrdinlm2qbBJPnUxg/rqa31ZSGFztk2eJiIgsss4DROvgfdiLmp+dxtDjQ5iqeHPJuzj34z70/egc9h7shP+jW6QLxebCZz46iZ7j2zVwEBERbS3rHDau4PT/dxyL2I3db5/G97/223j8T+I4fe4yrhg9K+9eweLcFL7/+Je1oLHvN76Eb/y7A1jhT3NYqu4Tx9DXPInjJycZOIiIiNZoXR/ENv/jPjwuAsRdn/o6ev7Vbsz85z/CcHIe776vNjDZ/aEGeB/6LLy/uvrOE6sfxDY/HkFkxoXgETfqblYLl5VF/Gg70ocS6G5Qixbi6DkJhE54gbEetIeT+nL/ABJdTn16dhCewzF9Gj4MJLoh12TN20Ncy0gfvLVqVkgNeRCI6tO+/gHg8ARa1L7aeTsi0PfOH5OIiGgjrVvYuPyXQ3j86dPY5erC1z9vqlTISsb5v8VP/8EYxPFB7Hf+Cu66de3dJhvx1FcjcPSG3LCpZcvRAkKmMxck5HwYIfTdGYXnlAOjInQUHEsLGjAFjDgutHnhLFquh4c0Os1BxHQePXgYoUKO3xiGwwgn8lilzk1ERGSxdelGuXJGDxo4WBQ0pN17UVPfgMaPNarXPesSNDbSO29fU1PVsR10wzWXRlaby2J6HHAfFE38HQ64ZtK4oC3PS03F4OvPVx1sMmjICsmpwuWo9aLTH8PErJxJIRoGgg/m1sLZNQCfms6ODSPm78xXQRpa4CtxbiIiIqutPWz8fRzf/g+nceWuBxB6eGuNvVgrWdU49uK96O31rKwaUNsENyYxvSCmZ6OI1KtGX4SFvn4g4PHAk7trJIv0nAuOO7SZIkuX77e7kDmvxxjADoepS2WJaECcR55LvgKIIYO0vCYiIqINtLawceU0hk6+gHO3HEDXo17UrfNw081kBI1jj4v3VfV4DYMNTa3A5MtZvWrRnK8+oKEbiUQCCRk6jsZV9SOJ9EVtosjS5RcySdjvNKJPUXhYSIslea7QqH6u3KtwvAcREdFGWH08eH8e8W8P4TTuQceRLhzYQSWNVQUNOZ7C9BsXsisF41FMzPnQYgwUNct1qchg4kLscH5fOWYjVWK5PMdw1DieEy3+JCLP5X9VI/WcMRhUnT8cRpyVDCIi2mSrGyAqgsZ4fxgjf1ODB3p74P1ltXyDWTJANDuJvoG38HDvCisaRYM3ZfeIvCslUl/ujpPCO0sK7jppDOYGchbejVJ8R4k6x4w+t+RulILzCea7X4iIiDbIKsLGFZz+k9/D0MvAgS9+A133bV5JYyPuRiEiIqK1WUU3yl7c8y+b0fy/hTY1aBAREdH2sK4/6rXRWNkgIiLa+nbQ/SNERES0FTFsEBERkaUYNoiIiMhSDBtERERkKYYNIiIishTDBhEREVmKYYOIiIgsxbBBRERElmLYICIiIksxbBTLJvHUyQTmr6v5tZAPQhvKP5WViIjoRsSwUczmwmc+Oome4+sUOIiIiG5wDBsl1H3iGPqaJ3H85CQDBxER0RoxbJQhA0dvYxKRFQWOFAY9Hni016CYK7IQR09uvQc9Y1m1Qpcd68mt8xyNQ1tbsE+JYxIREW1xfOrrMubHI4jMuNAbcsOmlpWWRfxoO9KHEuhukPMyeAQQ8w8g0eXMzaPfWF+4vQwa7eNujJ7waudJjcWxv82BqGcYjpE+eGvlPkRERNsPKxtVeOfta2qqgtkoIgjCrwUJyYnufp+almFiWAseetCQbPAe8iE2JWsVWUyPA8EjetCQnG1yej8cjUmkL6qFRERE2xDDRgWyqnHsxXvR2+tZpqqh1Dsqbuey71dTyh0OuObSImpcQHrGDseS6oUIJCcGgMN6N8rgrFpMRES0jTBslGEEjWOPe1F3s1q4HC045GXPZ9SULpm5oKaUi2kkcwElg/SCNlHEie5EAomEDB09iJfchoiIaOti2ChhVUGjoQW+mQiiuepDCtFwUk0DtoNuuKIBU3Uii/ipGHzNcjyHEy1+ORhVDQoV5JiNwuGj7FIhIqLtiQNEi2Un0TfwFh7uXUHQMMg7Rzoi0COGDwP9QGCqRQ0QFQrWiy1yg0V1qSEPAlE1ow0shT7IVC1yhUbR11ZVhw4REdGWwbBBRERElmI3ChEREVmKYYOIiIgsxbBBREREllrzmI13z43jmWd/gNN//y6wey/uut+PL/5mI2p2qw0sxDEbREREW9/aKht/H0f4WyM4/dadOOBqROOv7sN88hl8NRzH/PtqGyIiIrqhrSFsvIupH76Ac7c040vffAxdn38ID/3W1/Gtzx/A3nMv4IW/UpsRERHRDW0NYeNv8dM5YF/Tb6DB1GWy92Mfwz3izwt/P68vICIiohvaGsLGB/HBW4HL8xfwrlqiufI2rog/brllrz5v9s48XvvzOEZ++BJm5y4X7kdEREQ70hrCRh0am+8CXv0Bhv58Hu/KMRrvnMNL3/0BXvtAPVwH9umbKVfOPIOvHHkc3z71AsZf/AH++Mmv4Mvf4tgOIiKinW5td6O8v4ip//Akvn/mslogfGAfGv/91/HQfabKxjsz+OMjz2D2w5/Ao7/1adyz710s/vkQ+k7NAr/xKP7gkOx4WTnejUJERLT1re1ulA/UoPmLT+Cpb4oAIWb3ubrwxLefKAwa0l+dwez7dXjgYRk05ILdqPmNL+Ghj+/Flakp8MnpREREO9fawoayu6YGMl7s/Uf7sa/E72ssLv6D+N9fwgeLniH2S7ZbgPff5diNDZfCoMdjegItERGRddYlbCyn5t57UINZ/FnCdIfKu3P4s+Qi4PgV3K0WUaF33nkHExMT2p/ry4nuROETZ4mIiKyyIWEDd3nx6YN7ce5HfXj8j57BM88O4cmvPonx7F144N9+AoVDSTfJdfVnJdVss44uXbqEX/zFX8Qv/MIvqCVERETbz8aEDezFgX/3DfQcOoB3z85gJjmLi7YD6PjdELy/rDbZVFkkjncjMl7+t0HmXzqGh5+cFFuWlx3rgcfj0V9DqfyyoTjiR+XyQailal5/9YwtPep7772Hv/u7v8PddxfWfVJDcvu41g2SP4/eLWI+r2Yhjh5juXjlu03k9j2IL5imZ03bmo9BRES0RhsUNqS9qPnFd/H2+0Ddp3rwB7/bhda7NuABKlWxwdN7DPe+eKxk4JBB4/hpD/oec4sty5gdRPu4G6OJBBLy1eVUK4ToJHBELu+GUwsa7ZhsHdW3SwzArTYz+9nPfqb9eeutt2p/miXDabSofX3RgAgIEwXzRqjIvpyGe0QuF69+H2KHjbBTLInIKSBU4hhERERrtf5hw/jhrmdld0n+NRT5Cn73u6fxruMBfLGtTm28hdxcB+/jSwPH/HgEERE0eo+4UXezWljKHQ64ZtK4oGYL+DvhrVXTC9OYRBChNiO2OOHNTef99Kc/xT/+x/8Yu3btUkvyXCG/2EtyosW/dD5zXq+U2Nq68+dtaIFPTS7lQvCIVwWpwmMQERGt1bqGjSupEXzV+OGupOwuyb9mFz6IhvZH8c3HvKjbwHrKiqjAcWD8uBY4tKAxIxviZYKGVOtFXz8Q0LoiylUQhItpJOsd5SskghwQ+tZbb+FDH/qQWrJapu4VTwAxtXQ5++0uNUVERLR269rsX/7pa3j7nzyAR088he985zsFr6ee6EGX5x7s26pBwyACh6e3VwSOL6Kn2qBhaOhWXRYidByNlx/fMZeuOPZjfQaGyqAxDIfRjSK7R9QaIiKijbQOTf+7WDz7Gi5p0w349Be9uOdDW2UsxirJwPG15/F0aAVBw6xSl4rszpiJIJwbFJpC3DRAtNzA0BVbSCMDOxxGN8rsRNWVDSIiovW0trDx/jzi3/oyvvrUOOa0BbP4fugrGPpvi9rcDWV2UHVXiFfHJNwjcjBoKfI3LgZgD7fnujfSd+Y7VSoNDF2RWi9CoYzq1hGvKbCyQUREm2JNz0Z57dSX8e0/Bw48/HV0fWwf8O4ipv6kD9+fvQMdxx9D61qHHCxjJz4b5b//9/+OD3/4w7jjjjvUEiIiou1tDZWNWUxNXQEOdupBQ9pdg+aHP42G9+fwF9M3YHVjjdZvYCgREdHWsYaw8a72WPl9xQ3jL9wCOWLj3ff5xJOVkgNCW1pa+IuhRES0o6whbNyNe+4GLk+/iNNX1CLhyl/+JV7DXvyKYwv+lgYRERFtuDWN2cDfx9F3/AWcu7kODf/cjt3/8NeY/ellvHvXA/h6jxdWx42dOGaDiIhop1lb2BCu/PQlDP/vL+D0378L7N6Lu+7344udjahZh5tql8OwQUREtPWtOWxsJoYNIiKirW8D6g9ERER0I2PYICIiIksxbBAREZGlGDaIiIjIUgwbREREZCmGjQ0jH/nuweCsmiWFnwsR0U7HW193qL/5m7/R/vwn/+SfaH9uliXXsRBHT0canYlyT8XdYNr1RIDQKPra8k/fNZYntRkfBrbK9RIRbUOsbFTruvqzkmq22QDvvfeeFsRqa2vVks2xVa6jnNSQB56TgNuvFuSkMNgxCfdIAolEAqPyUf1H48iqtUREtDIMG1XJInG8G5HxeTW/1PxLx/Dwk5MVGiTZXdCD+IKald+cPaKxUy+9GyGL+NGiLgW5nWrosmM9ue09nkFxxNJkA79792588IMfVEsMepdF4TmFomvpGcu/C9kg94zF8/sNybOajqPNl7bkOmYH4dGqBTEEcuep9LmY3+Nqrz2lfaZLjwc4u0SYOOGFQ83nzE4g5u+EV2UkW1snfDOTmDaukYiIVoRhoyo2eHqP4d4Xj5UMHDJoHD/tQd9jbrFldbIvp3PfnBP9PsQOy4bQhqZWF2JT+SYx+/Ik0Nok1mQxnXFjVG4vXgN+0WCXaehff/11fPjDH1ZzBtlYB4B+dc6RoGpkxXIRAOzG8sQo3OPtBYEnGU6jRVs3AF80IBrtiYL5gnBksuQ6Grq187q0bolEYbeFRl5LvqKQyHVdrOXah4Ej+vpKn5lZ9nwGLvt+NSfth6MxifRFNUtERCvCsFGtm+vgfXxp4JgfjyAigkbvETfqblYLq2Br6859c0ZDi2h+dbaDbrjm0qpCIgLGOOA+KBtlG7xd3lyYcTYbexR644038O677y4dy6J9Wx9Ad4Oar/XCK6azY8OFy+V5DonwYwo8rpBfNfpOtPiXzmfO56sJhrLXUVGZRn1N1x7Kfc7aZ5b7bMu7kNFHauTZ4KhXk0REtGIMGyuhAseB8eNa4NCCxowLwRUGDZ38tm6U9wOIqaWobYIbqmQ/G0WkPl/O17ohjH0O5/YosLCwoDXwu3btUkt0S7+t5y1ZfofDFHhWp9x1VCbCwokB4LD+Ho0Kxbpdu1ynJivZby/eKov0nJokIqIVY9hYKRE4PL29InB8ET1rChrDcOS6CwZylQ3Z4Da1ApMvZ5GaisHXrO6BkEHjlCPXjSK7XootNyAzmbmgpgotWX4xjWS9Q1zJ6qxtYKgT3eozweH8WI6NunZD4XEvIC3+rh13qFkiIloRho3VkIHja8/j6dBqgoawkEYGdjhyFYuJfGVDkF0pGI9iYs6HFtVFIL/dw9SIyiBSrPzAUP2YLvP4ioU44mJ6yXLxLT5+yhRyVqHSdVQv36WykdcuaQNCo8O5oKN315gqTEREtCIMG5uh1ouQvJ3S6BKZkr/kYKJ1pcQQq29RYyNkAxhCcE4OztT3mSjcQ1N6YKgiztk3EkRGdVF4OiYB+U29eLmnHelDCdM4iJVb7jo65UBNcS7znSM6c9dSOyZbR/Xr2MBr1znR3W9HpEM/bvu4G6NdawswREQ3Mv6o14aRDam8i8OaH4eSAzL/+q//GgcPHlzhOIn1tVWug4iItg5WNjaK7CppdKD0MMe1W92AzPW3Va6DiIi2DlY2NojH04PgSB/7/YmI6IbDsEFERESWYjcKERERWYphg4iIiCzFsEFERESWYtggIiIiS61r2Hh3Lo5vH/0Kvp04h3fVMiIiIrqxrWvYWDw7g9cuXcZro3348uPfx8wCIwcREdGNzoJulAPo+J0H8CtXpvDM176Mvh++hsvvq1VERER0w7FkzMa+X/Xi0RNP4EstNZh/8dv4ytFvI/4/Lqu1REREdCOxboDoB/ah4Te/jj/4/YfQvPdv8cIffgVf+e4UFnd6z0o2iadOJjB/Xc1vuCziR/OPZiciItps1oUNZXdtIz779W/hsU/dA/zV9/HVLz+O7ycXd+4AUpsLn/noJHqOb2bgICIi2josDxu6vaj/5KN44sSjeOCfXMHUs1/F7/5hHK/t0J6Vuk8cQ1/zJI6fnGTgICKiG94GhQ1l3z3w/vY38c3PN2Pf3Av6bbI/3pkDSGXg6G1MIrKiwCG7QDzwePRXz1hWLZePp88v9wyl1HJddqzHtM8FtTQvNZTfN39MIiKijbGxYUOzGzWuz+Lrf/BNPPSx3XjtR9/GV7+xM2+TrWsNIqgCx/JNvAwa7ZhsHUUikRCvAbhzywPIhIzlCQwgkA8Ns4NoH3djVK0LYRiRGX2VJINIQOyh7zsK93g7BmfVSiIiog2wCWFD2V2Dxs9/E0+YbpN9fPS1HTmW4523r6mpChamMYkgQm02tcAJr5yejSJSsFyseTAIjE+LGCKCyKkYfIe8MNba2kIi4KgZpBANA8EHnWrehqZWFzLnWd0gIqKNs65hY/ctt2C3mq7Wvl/9BD79L+uxV8SM+f/xt9hJwzjmxyM49uK96O315MJAWRfTSNY7Sm9XvLzWAftMGnqHiQuOO7SJMpKIdOS7UdrDSSQzS7taiIiIrLKuYaPmXz6Gp57owD1qfjnvLszg+49/GX3Pz2HXrz2Axx71okat2+6MoHHscS/qblYLlzOXLt3dUrx8IY1MowP7tZkk0he1CeUC0qZuFMCHAdXFknt1GZUOIiIi660tbFyZQ/yPvorf/tIjeORLv42v/lEcc7v2Ya9aXdb7lzH7nx/Hl7/2DKau/Aoe+J0n8MRve1G/7I7bw6qCRkMLfDMRhE2DQuNyeslysea5CNDaBJvqFomdiufCSHZsGDE1LbtiWvwxBIoGlBIREW2km65evfpzNV2dK4uYf68Gdb8wi2d6/xgz1+rQ8M/tImBcQea/z2J+TyO+dPwhNLwzj8VddagpChCX/0ccT//HF/Da5d2o+3gnfquzETWrjDyLi4uoqdlitZDsJPoG3sLDvSsIGjnyrpNALiz4+hPobpBThctdoVH0mcZwyLtNAlF92hUagHt8GDjSB2+tXKIPPM0PGnUhOGKsIyIist4Kw8YiXnryq/jB/7wHrR95A+MvA97f+zoe+GW1+u9fwOPfiAMHW/HBvx7Ha//o0/jmY5/Qu0bePYeXvvNH+MHZy9hd14zO/08HGmtXOsKj0JYMG0RERFRghTWFGnyi+yEcwGsiaMwDtQ245xcv4/Jl9frFe9AgvjHPvyyCBhrw2S/oQePdsz/A41/uww9eA+751KP45u99ds1Bg4iIiLaHlXejCJf/65P4yp/OqbnS7mp/Aj2efdr0/I/78Id/cwAPf96Le/RF64KVDSIioq1vVWFj/seP4/Ef/RI++8RnoQ0pKDCL73/l+/iHT30dX/9knbbk3cuXgX37Vnxb7HIYNoiIiLa+FXajnMbQI4+IoDEvpnfjFhEg9i156b+1Mf+jx/HII0NiD7GlWM5OEyIiohvTCsPGL+EeVyMa7tJvMXm3wjNN9t33aTz08L/C3WqeiIiIbkwrDBt3ofXzD+FLD96HvXgNr51Vi83m/hYZsbah5RNo/Fg91nGIBhEREW1Dq/iFi3dx7m/O4Yr4v6nnf4C5K2qxdGUOP/jPL2FRrHvtv8+K/yUiIqIb3QoHiIqg8aMw+n58Dne5GoG/nMG5m/eh/t6PoBYL+OtX53D5+l1o/BgwkxTbeB7Do+3yuSfW4ABRIiKirW+FlY3d2L17F+o/2YPQ5x9Cz+8/hFb7bpz/qxnM/NV57La34qHf78FDnw+h55P12PWLt1gWNIiIiGh7WNWtr1sFKxtERERb3yrGbBARERFVj2GDKsqO9cBjPDV2IY4ezyD4DFkiIloJho0dTj4Rtsf0eHoiIqKNxrCxXq6rPyupZhsiIqIdhmFjXWSRON6NyLj8GffS5l86hoefnBRbVpJF/KgHHo/+ylckUhhUy7SX0a0hGN0csoKhr+9BfEFbox0rEAWS4XaxXO/+0LePq/MYXSLlj1+R1q1i7JfvXil9DiIiulExbKwLGzy9x3Dvi8dKBg4ZNI6f9qDvMbfYshwZDtox2TqKRCIhXgNw55YHkAkZyxMYQKCwayQawESzvm40BEROxsVeNnhPiG39gEvbtxtOtTmik8ARub1cVsXxSxIBpWMS7hF9n0Q/EDgqz6sUnIOIiG5kDBvr5eY6eB9fGjjmxyOIiKDRe8SNupvVwlIWpjGJIEJtRhxxwiunZ6OIFCwXax4MAuPT+YbdP4Bu9fhd20E3XDNpXNBnS/N3wlurpqs5fgnZsWHEzMdpaIHPfF7zOiIiuqExbKwnFTgOjB/XAocWNGZcCC4XNKSLaSTrHaUrH8XLax2wlwsUcp2arNpKjm8WDeS7XjwBxJBBWuvCISIiymPYWG8icHh6e0Xg+CJ6qg0ahrl06WpC8fKFNDKNDuxXs2u2yuPr3TOqG0V79bGaQURESzBsWEEGjq89j6dDKwgaWjdEBGHToNC4nF6yXKx5LgK0NlUY/7ECqzy+7K5BOKwGoxIREZXHsLFlONGdGIBdu3NE75ZI3ymb++LlHgzbR9FnGmNRiTb+wnQ3ylKrPH6tF339dkQ6jG4U8ar2LhYiIrqh8NkoREREZClWNoiIiMhSDBtERERkKYYNIiIishTDBhEREVmKYYOIiIgsxbBBRERElmLYICIiIksxbBAREZGlGDaIiIjIUgwbREREZCmGjU305isv4Mwzz+LM82fxplpGRES002zYs1Hmx/rQ9/w5vKvml7j1ALp+vwsH9qr5Kmz3Z6NcivfizBMzgOvLuO+JNnxILbdKdqwH7eNujJ7wrs8TY3eY1FD+IXTm6VVbiKOnYxLuET56n4hubBtS2bj8598WQeMK7nQ1orHMq+H21zD0tRHMqX2oWBbxo6YnrMrX0bhYWp5sMHtMj463tfUhsd5BQzaoZZ8oW4a2T/Xvozr65zM4q2a3Avlk3ASDBhHRhoSNK5ffwLuw4199/iE8VOb16fv2AT+7jEtqHyrFheBIAomEem3DCoWsrni0b/um93EojehWCglERLSuOGZjR0hhMFcp6EF8Qf+WH4gCyXC7WKZXHrSGfkjVIFRFIi6X5fZT25jmDbJKsqQSMTsogkMEScQQEMtzVZSCyoWp6iGWh8N2DBR/22/oRneDmi6qepgrM3qlJmWq8BjHlu+/HZEZIHZYLNeuTy4T72FMXKPpOPn3J1+F77GSgv2Mz1DQrymuf/7FFRr1GRtbl/wMi7aR5LmM6y25DxHRNrOqsDH/5yN45tlnyrx+gJlFtSFtABksAkC/USmQDbkN3hMJDPgBV2hULOuGU21dKIZJhLT9RkNApMODsHn+pNG4pTCBAXX8UQQRQVg2hiIkJEaCcMEnAkRCjW8Qjby5ctEPBFQjmX15Ekl/S5lrkeS+Edhz72UU7vH2gq6RZHgYOKKvH/CLkKM1/E50y+tqBHxy31zFJ4lIpkXbVrs2EY7atbCjjj/ixmRHYUNfktxPjnVR+w0gUBCCkuE0WuS6ipWmMp9hbRPcjTFM5N5jFtPjgPug/lmW3IeIaJtZcdiY/3EfHj81jpnkTJnXS3jmxBBOX1E70DoSjacIBMY3Xb3Bs8FRD2TOr6YR8qFTDYC0HXRroaFgfiaNC9qcaMy7jIhgQ1OrS00vlR0bRszfma9cNLTAlzuOCD/2/WpqKX3fgXyVQ5zLe8iH2FQ+DrhCodyxnc0+YC5d4du+C8EHjesWoexUTIQRU/Cq9aJTBJZ8Q1+K2u9QPkjI8yYzxjuS1+SvEKAM5T5DfTr397cwLQKgG03ae6z+cyci2spWGDZO44UfnUPdp76O73znO2VeXTjwM7Hdn82rfWhZdbejuptwCsdsGHdKOLv0CkA+gKw/czdCeziplpYRDeS29XgCiCGDtOquMDfSpSwJI3c44CoXKOQ6NVkdFxx3qEllv93U0Fegdc8Y7+lwbJmQU1q5z1AGO4xPa8dLPReB3RRsVvS5ExFtURyzsYEWX5/H+2oauIbsT87ok7fchj361Crp3Saluh3Wg2zw2jOduZAzGqrcxOtdN/lQpHft6I2qKzpRsdtiSRi5mEay3pFrfNcmifRFNalcyCRhv3O5oxcNzJWvFQ7OrfgZyq4UTGJ6IYWJqA8tqrKz0s+diGirYtjYIFdf+S5ePfQFTH3jWZydmsHZwV6kf3hNrNmD2+6/W99ozdbSpVKebJDzFQc5pqD8N2ztW3o4XHrgpeq2CBQNiJRjImRA0sNIwBSWVBdG8/KdFMvTuyFih03nXohj2NS4lyb3M49fWYYcNFtiIGflz1A/x+RzE8iYxrSs5HMnItrKNiRs1P2LT6O59jSGHnkEj5R5Pf6jRdz1vz2AA2qfnebaFfFh33IN7yVO4WJPLy6OyKrGHuz6XAT33l9tXaNwzIZ+N4Z+54mxLICBfPfKg0HR8OfvRlktZ9cA7Npx5DnCSNebv5UbAUJ14cjflui3F16n6e4NZ5f8hp7Rts+tn2rRx2nIfUeCyOS6LNqRPpQwjeGoRI3vyN2NspT8nZGCc3ek0Vl28Gye3G+gPoJ2Yz/xWmn1qOJnKGghLRqD3RSsltuHiGi7WOEviMrAMIQLn/o6vv7JOrWsWJltrpzD7KsXUHbc6AfvRuOvruzXQLfbL4i+90YG56Zm8Mb8W2Ludtz6cTfqP2LDLn017TTyttaTQGgb/h4KEdF62rhulL13oeFjjWgs91ph0NiOdn3QjnpvO+576PPi9QD+KYPGjqbd6rtu402IiLYvjtkgWmfGHSTab3rkbl0lIrpxraob5af3fRqf/uf71LJif4s/e3ocixW32Yv99zbgrhU8dK2U7f4gNiIiohvBqsLGaTW3JrcewENf60JjuTxSBYYNIiKirW/jBogWqGab5TFsEBERbX0cs0FERESWYtggIiIiSzFsEBERkaUYNoiIiMhSDBtERERkKYYNIiIistQKb32dw0jwSfzl7Q1o+OVyv8i1gJ8m5/D2Xctv80u/+QQebVn9D23s+Ftf5RNEp1qQ4K9QEhHRNrbCsCFcOY2hrw3h9M/U/Crd9amvo2cNv7EhMWwQERFtfSsPG1vIlgob18XrZn2yrGq2MWPYICKiHYBjNtZFFonj3YiMz6v5peZfOoaHn5wUW1aSwqDHoz3Ey+MZFHOFUkPGOvE6Gi84VsG6EvsSERFtFoaNdWGDp/cY7n3xWMnAIYPG8dMe9D3mrvC48SziRwNAfwKJhHy1YOJwTK2TUpjAgFo3iiAiCI/pcUM+ZTQwF8Sotk68+oFAURghIiLaLAwb6+XmOngfXxo45scjiIig0XvEjbpKXSizUREfgvA3qHk40d3vU9OSmM91p9jQ1OpS0ylEw0DwiDcfZBr84kiTmF5Q80RERJuIYWM9qcBxYPy4Fji0oDHjEkFgmaBhqHdUqHzoFQyjq6Q9nFRLJTsctWpSY4OjPon0RTVLRES0iRg21psIHJ7eXhE4voielQQNaS5d0PWRPZ9RU3rQaM90qm6UBEZDRmVDyiBdUMXIIj3nguMONUtERLSJGDasIAPH157H06EVBI2GFvhmIojOqnmteyRfvbiQScJl36/mspgeN9Y50eJPInLSNEZD65Jxo6mg2kFERLQ5eOvrVrIQR09HBHqM8GFADvTM3foq71QJQB8y6oLPD2TsIfS16R0v8m6UQFSbBBqDGD1hGsNBRES0iRg2iIiIyFLsRiEiIiJLMWwQERGRpRg2iIiIyFIMG0RERGQphg0iIiKyFMMGERERWYphg4iIiCzFsEFERESWYtggIiIiSzFsEBERkaUYNjbRm6+8gDPPPIszz5/Fm2oZERHRTsOwsYmun0/i0vdO4dJUGtfVMivJx9R7jpqeDrtTyQfaeXoQL3jsPhERbRY+iG0TXYr34swTM4Dry7jviTZ8SC0vLYv40XZExOY5yzzdVT4Jdtg+mnsyrCW0J9Wm0Znohnw2bWXmJ9caXAiO9MHLx+ETEe1YrGxsK7JhTiCRUK9t+Rh5HwaM65evETcmOzzoGdvx9RYiohsWw8aOICsGHni0l+w+kFUQDwJRIBluF8sGxRaqG2VITglaV8Mg4nJZbj+1jWneIKsk+nLxMrpiZgfh6YggiRgCYnkuMGjHNrbXz11WrRd9I0EgHM1tV/JcSv765KtMV4l6b8bxCvdRy4u2keR2xnuodA1ERLQy6xo23r00h5kfj+CPv/UVfPm3H8Ejj6jXb38ZX/nWH2PkxzOYu/Su2prWhwwWAaDfqBbILgkbvCcSGPADrtCoWFauiyOGSYS0/UZDQKTDg7B5/qTRyKYwgQF1/FEEEUFYNsoN3UiIoOBS1Qq9u0YEn45JuI0KTD8QWK6xrm2CuzGGiVk5U+Zckgg37WF7vjKiVUWWCTPizNMZN0bVPgN+EYxk4Co4pyS2GwfcB/X3UPYaiIhoxdYnbFx+DfE/EgHj6JN45kfjmD33Nnbdug91dx/AgbvrsO/WXXj73CzGf/QMnjwqgscfxfHaZbUvrUBSCwTGN279W7gNjnogc341jaEPnWo8h+2gWwsNBfMzaVzQ5pzo7jLiig1NrS41vVR2bBgxf2d+DEZDC3y545SjvwdduXOJUHUqBl+/KTjVetEpwkM+MJQigldXvrvJ2exTU/qxc5/bwrQIXm40addd/fslIqLlrTlsLP63IXzl6LfxwquXcUt9Kz772Dfx1MBTeOLEE/h6sAtdwa9r03LZNx/7LFrrb8HlV1/At49+BUP/bVEd5QZXdzv2qsnKCsdsGAM/nV2jcI/L7hLrxj6YuyLaw0m1tIxoILetRxsQmkG64p0hWaTnXHDcoebKniu/jWG/3RQYypHdPcb1HM4PT5WBCuPTWtUl9VwE9kP5ULKi90tERBWtKWzM/7gPX/1Pp3H5lnvwwO88gSce60BzfQ12lzrqB3ajpr4ZHY+J7X7nAdxzy2Wc/k9fRd+P59UGO9/i6/N4X00D15D9yRl98pbbsEefWiW920SW/GXoGKz4TX/lZMPbnunMhZzRUOVv+nrXTT4U6V07amUps1FEVFWh8rmSSF9Uk8qFTBL2O42IUIIMGqccuW6URL9R2RBkVwomMb2QwkTUh5YGffFK3y8REVW26rBx5cwQwj86J/6D3Ywv/f6j8P7qPrVmeft+1YtHf/8xfOIu4NyPwhg6c0Wt2bmuvvJdvHroC5j6xrM4OzWDs4O9SP/wmlizB7fdf7e+0ZqtpUulPNmgu+z71Zwc21D+m75WLQiHq/+NCxkGDmcQPKJXFcqfS+/OiB02jdFYiGPYCAklBnxK2fMZoN6Rq1ikpsw33spjApPPTSDjb8l1z6zk/RIR0fJWFzYujeOP/sNpXLn1ALp+97NoqK4PoNDeenz60S4cuPUKTv+HP8L4JbV8h7om8tQHbrmG9xKncLGnFxdHZFVjD3Z9LoJ776+2rlE4ZkO/s0K/88RYFsBAvnvlQXmXR/5ulNVydg3Arh1HniOMdL3pm74aN5G7G0XeXdJvL7xO4w4Yjb5tbp1WdchXPiqdy9bWh9FQJr9/Fb/vYWsLITiX79aZgKmyIWjhKBqDvTl/lIrvl4iIVmwVP+r1Lma+89t45q/2ovGRb+Ghj+7Wls6NfgVP/vluNPzrz+Kzbb+CXW+9jcXX/xoXsB8f+XANbvnF9/C3Y9/H02Oz2P0vevDNf3OXtt+7f/UMfvc7M7jy0Yfw1CON0I9Wne32o17vvZHBuakZvDH/lpi7Hbd+3I36j9iwS19N60VWOU4CoW35OyRERDvPysPGpZfQd/QHOHfvZ/EHv9WcG9h4+k8ewdDLamY5B7vwnX93QM1cwdQffRnff/UufPpEDz5R+Wc0C2z3XxAla+TGXOTuKCEios204m6U+am/wDnx54HfyAcN6UP7qu9L2bvPnCj2ovk3ZPA4h7+YunEGi9L6M+4g0X6Lg0GDiGjLWGHYuIzXUjIQHMB9H9WXaN6ZwY/Hqx/keWX8x5h5R81IH71PHFEEmdRr4gxEqyPHdOh3kFTznBYiItooKwwbi/gH+dMYdXfBbtrz8tSfYTZ/T+fy3p/Fn02ZYsUH7LirTvy5+A/iDERERLSTrDBsXMKivGvkw3WQ2cBw5e231VT13n7bXAkRx/uw+OPSojgDERER7SQrHrNRyu4PrOQeEt1q9iEiIqLtZ4Vh40OokWM7/+d8QXdHjeOuKn9u27AXdznMd5EsYv5/ij8+VCPOQERERDvJCsNGDX5JZoTXzyFjHqPxa/9K+zXQqt31CfyrX1PT0vsZnHtd/FnzS+IMREREtJOsMGzswz3OOhEOXsPsWbVIUwfvo19Ca93yXSO761rxpUe9BWM+cHYWr4nwUue8R5yBiIiIdpIVj9moa/513CV/iOu/Ton/BS7/5RC++tXv4zQa0PH1p/DU7z2Kz36yODTsw4F/8xAe/T2x/usdRT9vbhzrLvx6c0EEISIioh1g5QNEP9SKT8jf2Hj1B/jBWREjPtaFnv/1Mp75dhzz7wO7f/keNPzitaLfy7iMS7s+gnt+uUTl46w4zqviz49+Aq0csEFERLTjrDxsYDcaf7MD9R+4gqn/OITTV4C9H/80vHgBjz/6ZXzlK7+Nr/zpnNo2r/BWV+XKaQz9xylc+UA9On5zZc9FuSHIJ6IWPMTMaikMejzr/oh6IiK6sa0ibAgfasVv/fsD2PszERa+9X3MXqmDN/RNPPQvGvCRXzuAhruquDflyiy+/y0RVn62Fwf+/W+xqrElONGdSKBbPrKdiIhonawubAh77+tC6FN3AQtT+OOvfRvxud1o/DcP4aHPP4RP31d5mOfl/xHHt7/2x5haAO76VAhd963sxtkt6br6s5JqtiEiItphVh02pLpP9uCb//YA9r39Gl74w6/gK0+O4KWzc/jbc0ufcHL53N9i7uxLGHlSbPeHL+C1t/fhwL/9Jno+uRMGhWaRON6NyHj5B8nNv3QMDz85KbasRO/GkA8T83gGxVwR+ej03HoPesbyR0sNyfl4fn+t+8V0vILuGPN5zMeRy3sQFyFQm9OOmUL8qLFtiWsiIiJaxprChlTz8S48ceJRPHDvPrw9N44fPPUkvn9m6fiMK2e+jyef+gHG597GvnsfwKMnnkDXx3fKr2rY4Ok9hntfPFYycMigcfy0B32PucWW5WRFox4A+uWDxOSrBROHY2qdJIJARwT23PpRuMfbC8ZXJMNptGjrBuCLBkQ4mCiYz207O5E/z0gQCIdzAaNYMjwMHNG3HfDHENjQMSRERLQTrDlsaPbdA+9vPYE/OPEYHvpUKxoc+7DXPNpz917sczSg9VMP4bETf4AnfsuLe3baD2rcXAfv40sDx/x4BBERNHqPuFF3s1pYymwUEQThz42XcKK736em5ePThxHzD5jGU9jgPeRDbCrf+LtCfvW0Uyda/EvnM+dVBaOhO3+c2ia4G9V0Ca5QCN5afdrZLK5nLr1MdYaIiKjQ+oQNZfeH6tH4yQ586XdF8HjqO/jOd9TrKREwfvdL6PhkI+o/tIPvOVGB48D4cS1waEFjxoXgckHDUO+oUPkQDb99v5pS7nDAtarGX1ZRjK6RdnGNavFy5PnUJBERUbXWNWyQIAKHp7dXBI4vomclQUMqCg7Z8xk1pUtmLqgp5WIayWUCylIyaLQjfUh1oyRGEaxQ2SAiIlorhg0ryMDxtefxdGgFQaOhBb6ZCKK5MRgpRMNJNQ3YDrrhMo+7kKHhVAy+Zr2jpHoXkBYhyHGHml2YxmS1lQ0iIqJVYNjYMpzoHgkic9jo3phAi2nMBmq96CtYr1cnVv6bGHIsiB2RDnWck2nYWdkgIiIL3XT16tWfq+ltZ3FxETU1fE4sERHRVsbKBhEREVmKYYOIiIgsxbBBRERElmLYICIiIksxbBAREZGlGDaIiIjIUgwbREREZCmGDSIiIrIUwwYRERFZimGDiIiILMWwsYnefOUFnHnmWZx5/izeVMuIiIh2GoaNTXT9fBKXvncKl6bSuK6WbR8pDHoGxf8a0x7TE2mpWtmxHniOxpFV80REOxHDxjakNVC5hn59pYY8q2j8nOhOrOYJtHnyvD1jG93kZhE/ag5J+rz+VF31qvazWIijZxV/J7a2PiROeGFT80REOxHDxraTQjRsh88fw8R6VxJEgzk854MPk5heUMtuOC4ERxJIiPAkXwP1EYQ3PAQREe0sDBvbzewEYv4WdDf7EJta+j1ar3ro38p7xlLim3oP4rngoHd36OvNy3XZlyeBVj/8rcDky0sbWK3qofYv7DKRxzWOZ+5e0cn98tsXX4NeTQhEgWS4XSzT99UrHfH8tkPa0qL5PPP7Nq/TjyM/B7WuoOunHZEZIHZYLC9TwXCKzzmZuaDm9OPlzmPsMzsIT0cEScQQEMtzFRqt2mFsX7rqoV137nrNn43pOPL4RdeX/0zL7ENEtIUwbGwzqakYfM1OoKEFvuhwYWAQjVL7uBuj6lt5CMNaY6qTjXoA6Fff2kfcmOwwN4BZTI8D7oM22A66gXC0oHGUjWIAA7lv/C1TAdG0rlTRNST64K21wXsigQE/4AqNimXdEO9Okwyn0aJtNyDea0A0phMF87kAU/S+B8SVmhvdZHgYOKLW+UUg0Bp32fUzimAj4JPXU7IrQ1zvKfV5a1KYyH0GYl+oqkdDt/g8g3DBhwGxrq9NHkmEgI5JuI0qST8QWK5LRgTJ/N9PUPwdhPW/X/l3PWOuNonriPrQIrutyu1DRLSFMGxsJ7Kbw2hkRGPZ4k+aKhCqYTyUbzRtbSGtMdXMRkXTGITfGFdR2wR3YwZpo2HS1rvRVCumtXXmbhrZdQMEHzQaXXH2LtHgq+nq2eCoBzLnq/v27Qr5VfCQ73XpvH6cpe+7uBrhCoVEqNGn5TrMpSs0+klEOoxKgXjTIqTkx6KIgNJlfAY2NLW61PRS2bFhxPydufPqgSGN/FWVIEJL7lza34Ga1t5vEumLalZVt7QrKbsPEdHWwbCxFdTdjr1qshLZzZE0GhnB+aD4Jjs+bWo4XXDcoSZLmYmgPVdyl10I+QZMVkxcrU2qwbbBe6i4m8YOh9FwroGzaxTucdldsr4lf60rxHhvh2PlA8UdDvEpVZIfszEgGvjIc+bPQIaIfHdNeziplpahVWOM65KVIFO4K0lWfozt9S4egwxJ+t+HDFcZU/Arvw8R0VbBsLGBFl+fx/tqGriG7E/O6JO33IY9+lQFsptDNG7mBkyOExABIpqrQJi+/WouIG1ufPz5bhDjpX8rlmV5Y8yEOrZssAu6aYoayoW0WLIaereJ7IaQoaNw7MdqFQ7q1F7rcIeHVr0xfQYyaLRnOnPnGA0tE1u0biHzdcluI7VyCRka2pE+ZGyrd/HkaN1mE0gtTGPSqEAttw8R0RbBsLFBrr7yXbx66AuY+sazODs1g7ODvUj/8JpYswe33X+3vlElqhvEGJdgvGSDp3/j1cv6sVP5cQFaKV9N642VaZyDiV7yXxpE5Dd7vZtGL+Obv+WnnpMDIkvZD4e5C2Z2UBv8udTKulTKk+8biJxcZjzEqjjR3W/PHftCJgmXfb++SizRwl8Z+riXMuMnSgz41IOhqTIlQ0VBlUL+HYjP9bk0kKtALbcPEdHWwLCxQa5dER/2LdfwXuIULvb04uKIrGrswa7PRXDv/cvXNQq7OfJko+ZS377lbzbIWzWNrpIwOk3fdEXDORJExtzdoDV4eqOZHwSZp419UANFZfdHcC5fVZloLjdmQ3XBGOeZatEGf+rMJX+PNuBUH0wpji+7hEx3o6xE8fuWr+oqJqZrLTd4s8GvDQRtH0pplQ57rvoTRrreVNmo9aJTDj4V67TuITHfJ4NKbvyHeBXdQVNIBRtj+5Np2IuqFFpXSjSjDeJVS5bdh4hoK7jp6tWrP1fT287i4iJqamrU3Nb33hsZnJuawRvzb4m523Hrx92o/4gNu/TVFpC3Rco7OPJ3eFhjo86z88iumTBCudBFRLQTsbKxgXZ90I56bzvue+jz4vUA/qmlQUNEgKFA/q4FK8m7IxodMDoYqFp6Vcl+J4MGEe1srGzsINoARvMdEo1BjFr5U9hy7IEcSKoN0Kw0+JEK6QM7tTtH5FiZ3O20REQ7E8MGERERWYrdKERERGQphg0iIiKyFMMGERERWYphg4iIiCzFsEFERESWYtggIiIiSzFsEBERkaUYNjbRm6+8gDPPPIszz5/Fm2oZERHRTsOwsYmun0/i0vdO4dJUGtfVMlor+ZyWlT/MrZA8RrUPcyMiouUwbGwb8ieue0o/snynWIijx3hCqvbarPfrRHcige4GNUtERGvCsEFbg3zOSsck3CMJJERDr71G3JjsYIWBiGi7Y9jYpuRD1zxDKaSGSlcB8ss96BnL5pYVNNyygRfH0GhVhUHE5XHFPtp2RZWG3L5q25TcX60zzmHQrs/Y92gcxtpS16V1WxzOLH2YW60Xff0+xE6p/Utdo2A+5tJgoneJ6OtNn1GZY+nkPsXbFp9DVpqK9pPbqfda8P7X3K1DRLS9MWxsZ9EAJpr1KsBoCIiczDd0AQzkKgR9bdU+9zWGSYS0fWQXQvbldL7SIBv9w+ZGM4bAVIu+biQIhMO5xll7+uy4G6Pq/AOt+eX56xqFe7xdb6y1R9S70VTqqbENLfDNTGI6F6SKrrHovbZMBcQWBhkIAkC/vk6vlBS+B/Oxyin9OdjQ1OpCbCp/tOzLk0Brk1iTxXTG9P794rMyQh0R0Q2IYWM78w/kGknbQTdcM2lckNN32oG5tBY8VsaHTlMwsbV15ysNstFXkzofBoxHo9c2wd2YRPqinBEN7TgQPJJ/tL2zTU6nEA2L5Q8aj1PXG+vMeXWV9Y7c9oX2w9GoJjXmayw+pjhX10D+OmejiCAIvxEktOvMIJ0LLoXvt5xyn4P2mec+Z/19uw/K49ng7TK9/+bCT46I6EbDsLEV1N2OvWpy1WodEBFD19CN0dZJtMsSvqkLY+XMXRDmikExGxz1alLEnfSMHY5SVQokEekwjudBeziJZEbGI6FsOKp0PKnSOmEmon8O2qsdkRkjFK1Emc9BhheoqosMNvWd+VBi6mLyHC7/yRER3QgYNjbQ4uvzeF9NA9eQ/ckZffKW27BHn1o3trY+rYSvhY5VlfBlAzsMR27ApqlisCxz9cDMhwHVtZB7yerIkq4SE62LxYH9anaponMtpMUSE3++i8V4rewuk0qfg6zOAJMvZ5GaisHXrCosMmiccuS6UWTXCxHRjYxhY4NcfeW7ePXQFzD1jWdxdmoGZwd7kf7hNbFmD267/259IwuYu1T2281jDEQjWukbt9Zom6oGstFXk5U50eJP5saPSKkxOS2Xlxu74IRfjjnpKLrVVTbacuCoqUumkDrXc/ljpp6LIKmmtRATDZQYNFpKiQGf0jKfg+xKwXgUE3M+tKgQkz0v4o6pW0gGESKiGxnDxga5dkV82Ldcw3uJU7jY04uLI7KqsQe7PhfBvfevb12j4E6Iw8DACb2xtrV1ao2vvm4CLZW+cdd6EQplEDCOMyXrEtVxdiUwUJ/vvghk9IbX2TWK4JxxfvnKhwutEtNvL+hm0a49UXSHSpHiY040mysPTnSPBJE5bDrmSruVlvsctK6UGGL1LeJsOltbqPCaqv7kiIh2ppuuXr36czW97SwuLqKmpkbNbX3vvZHBuakZvDH/lpi7Hbd+3I36j9iwS19NW4bsOhFhLNGdCxBERLR6DBtExYwxF6oiREREa8NuFCKDcQdJxXEiRES0UqxsEBERkaVY2SAiIiJLMWwQERGRpRg2iIiIyFIMG0RERGQphg0iIiKyFMMGERERWYphg4iIiCzFsLGJ3nzlBZx55lmcef4s3lTLiIiIdhqGjU10/XwSl753Cpem0riultEGWoijx/QwOCIisgbDxrYhH4G+ExtG/dHuxhNSza+esRU9n3Xlar3oW+apskREtHYMG7TJbPCeSCCREK+RIFzwYUBOi1dfG59OQkS0EzBsbFPZsR54hlJIDRmVgMKqR355vkIglw3OapM6+eAxcQyN1qUwiLg8rthH205blj9Obl+1bcp4cJl4FVchtOsz9j0ah7G21HWVI7ct3EY++l1/n/q6lKkqUlz1kduWW6cY70PNmq8td81F20jyvenXZT7H8u+HiOhGxbCxnUUDmGjWqwCjISByUm8gZWMYwIBeLVhRhSCGSYS0fbobxHFeTsM9oqoO/T7EDpsb3RgCUy36upEgEA7nGnR5/vZxN0bV+Qda88vz1zUK93h7Yfgp4mz2ITk+nQsqmJ1AzN+Z6/ZIhoeBI8b12RHpMK5Pds0EgH61bsSNydy6clKYMF1bEBGEZXiobYK7MYaJ3HVmMT0OuA+Kz1RcT/4chZ8BERHlMWxsZ/4BLRRItoNuuGbSuCCn77QDc+l8I101HzpNwcTW1p0fz9DQItaa+TDQ5dQntQY5ifRFOaM3xuZHtDvb5HQK0bBY/qDaRyxpanUhc77CVcpzqvckpaZi8DUb+wOuUMh0fX4EjVAwGxVRIQi/+mz068sgXTEIONFtvB91bebp3HUuTItA5kaTPG9Dd+7z18+hpomIqADDxlZQdzv2qslVq3VARAydaARHWyfRbu4OWBVzN0EAMbV0KRsc9WpSRIP0jB2OkoMuk4h05Lsd2sNJJDNGlCjFiRa/UVVIYSLqQ4vRuC9hvgZhJqK/f+3VjsiMEYbKM3f9yGszyCAHVWFJPReB/ZARpMyDW+U5tIVERFSEYWMDLb4+j/fVNHAN2Z+c0SdvuQ179Kl1Y2vr08r7WugwxmWsiAwaw3AY3SiJgaLKRiXlqgj5wZ+5V66aUJrzwSAyU+L6tS6UFhE/yskiPeeC4w416893IxmvXBWiBK3rJ9OZ23Y0ZFQ2BFm1wCSmF8yBRwaNdqQPGccfRZCVDSKikhg2NsjVV76LVw99AVPfeBZnp2ZwdrAX6R9eE2v24Lb779Y3soC5S2W/3YWYbLg1IkwcLl+rwEJaRAZThUI29mqyMlmNSObGj0ipMTmtVykCKw0+sqGfm8DgVMbUBaNLhqPiXeiyY2FEct0bLfBFA6XHg8hBrSWqPRcySbjs+9Wc7ArKVzZk1aSpFZh8bgKZXOCRFRxTuJHdK6xsEBGVxLCxQa5dER/2LdfwXuIULvb04uKIrGrswa7PRXDv/etb1zB3B3gOAwMn9LK/ra1Ta4T1dRNo6a9Qq6j1IhTKIGAcZ0rWJarj7EpgoD7fjRHIOLTzO7vEt/854/zyVc3vhsiGPoPYnAoSJq6QAxPqWO1he+59ysDTPRJE5rBxHvFapjvJ2TUAe7hdbR9Gut5U2RC0rpRoDPbcmBFxDm1Qqjr+yTTsrGwQEZV009WrV3+upredxcVF1NTUqLmt7703Mjg3NYM35t8Sc7fj1o+7Uf8RG3bpq6kMGZ7CCBXcVSNvUx22j67ttzjkba0ngVAupBARkRVY2dhAuz5oR723Hfc99HnxegD/lEGjCvIuFnvBXTLrJfvyJJL1etWFiIisw7BBW5b+I1vy9zK61TiJ9WF0M2ldL8sMUCUiorVjNwoRERFZipUNIiIishTDBhEREVmKYYOIiIgsxbBBRERElmLYICIiIksxbBAREZGlGDaIiIjIUgwbREREZCmGjS1FPtZdf7BXySeWEhERbUP8BdEtRP6MdnumEwn+hDYREe0grGysl+vqz0qq2MZl36+miIiIdgaGjXWRReJ4NyLj82p+qfmXjuHhJyfFlqXJh461h5NIhtvh8QwipS/NdatoryF9qUY+Hl1sF1cPFZPdLvIYPWPx/D7a9qZjmPcnIiLaIAwb68IGT+8x3PvisZKBQwaN46c96HvMXfZx5s6uBEZDLrhCo0gk5FNOs4gfDSCjzSe01wACIkyY40oMkwhp67ob9CXJcBot2vYD8EUDImRMFMxzLAgREW00ho31cnMdvI8vDRzz4xFERNDoPeJG3c1qYTVmo4ggiFBbPp44HwwC49Om6ogPnab1kivkV49jd6LFv3Q+c75cbYWIiMgaDBvrSQWOA+PHtcChBY0ZF4IrDRqGekdhJaTWAftMGhfULBER0XbAsLHeRODw9PaKwPFF9KwlaEhz6cIxHgtpZBod4BBSIiLaThg2rCADx9eex9OhNQSNhhb4ZiIIm8ZopJ6LAK1NZcd9EBERbUUMG1uWE92JAdi1u1P0u0mG7aPoKxqjQUREtNXxR72IiIjIUqxsEBERkaUYNoiIiMhSDBtERERkKYYNIiIishTDBhEREVmKYYOIiIgsxbBBRERElmLYICIiIksxbBAREZGlGDaIiIjIUgwbm+jNV17AmWeexZnnz+JNtYyIiGinYdjYRNfPJ3Hpe6dwaSqN62rZjjI7CM9QSs1sL9mxHniOxgsf8U9ERKvCsLFtpDDo6UF8Qc0aFuLosaJRlEFBPW1Wfw2KK9goWcSPms8tXhvc8Nva+pA44eXj/ImI1gHDBi2hfas/DAwkEkgYr34gUCrsWMaF4Ijp/Gz4iYi2LYaNHUYLCkY1wNSFUW55asiDnrE4Bo3qwUIc4bBdBI1uONU2moZujIaAyHP6vtrxhuKqAmFUPWT1RZ2jVCVEVmFKrC99rPIK3ktBAFLVnzG9KtMzli06tnhpFRJT5aRMxUTfL38l8nPKndPYR1Z/ivaX2w3OalOmz0K/FiKiGxXDxk4iGr/2cTdGjWpAl4oLRcsHECho/JLhNFpU9QAvTyLpbykMGortoBuu6EQ+DEQngSPymDKYyAY8APSrcydaMHE4pjaUROPbMQm3Ua2QlRJzQ11wrArke9HCkDrOiBuTHeaAkkQk06Kt62tTtZDcsUcRRATtnnDBfHjZIJDChPjU9Pdl2qehBb6ZSUybws5E1IeWBjE5O5H/LEaCEAluA6tCRERbC8PGTnKHA66ZNC6oWZ0IAadi8B3Kd0M4m31IZvJbuUL+ggbeZd+vporUOmBXkxp/J7y1ano2KprgIPyyodU40d3vU9OyUjCMmHl7raE2Xat5nUaEhg5TNUGrMqj30m8KJLVedPpjmNCqCZILwQeL4kru2DY0tbqWzJs/i9LEezGCm3EMjRMt/iTSF9WsCBgxI6g1dKPb+Cxqm+BuVNNERDcgho2toO527FWTayIa3j5tbIVsoAu7I2KHTQ23rDjMpQvK/2ZlG9+FNDKNDpSJIkC9o/K4imggfw2eAGLIIF32237RmI1cY++C4w41qey3u5A5v1x1Ym3MXTft4aRaqge32JQRhDKmoGPqqvG0IzKjFhMR3YAYNjbQ4uvzeF9NA9eQ/ckZffKW27BHn6pgPxyNpm/RhotpJM2NvPhGrTXOBd0URQ23fJUZcLmkq8QkK7tYKgWKogCTPZ9RUzpXaLTwGhJ9RdWMaiz9DC5kkrDfWTHmrIkMGu2Zztx1j4aMyoYgKzTy81qYxiTcaNLejwwa7UgfMt7nKIKsbBDRDYxhY4NcfeW7ePXQFzD1jWdxdmoGZwd7kf7hNbFmD267/259o4r08n3slHlAYgqDh2PwNRd1G0i5LhW5HxA5WTiQsSzVLREoqoxoDa4cK5GrMBTRukUiiOa6M1KImioAMsSsfdyC+gwOm65tIY5hY5zEWpUY8CnJMJPvWspiejz/vvSulBgmnksDrU0qiF1AesZUgZFBhJUNIrqBMWxskGtXxId9yzW8lziFiz29uDgiqxp7sOtzEdx7//J1DUn+9sNAvRzgmO+KyIRG82MDZGNprNMGY+pjG5buZ9wxUZqzS357z6juGP2lDzCtNHjTie6RIDK57poJtJjGbOhdPPYS4zBWRr6XgmvrSKNzuUGla+TsGoA93K6uO4x0vamyIWhdKdEM3AeN6oocr2J6ryfTsLOyQUQ3sJuuXr36czW97SwuLqKmpkbNbX3vvZHBuakZvDH/lpi7Hbd+3I36j9iwS19NW4is5IQRyt/RQkREq8awQbREfsxFrmpERESrxm4UohzjDpJ2ROoHGDSIiNYJKxtERERkKVY2iIiIyFIMG0RERGQphg0iIiKyFMMGERERWYphg4iIiCzFsEFERESWYtggIiIiSzFsEBERkaUYNm4IKQx6Kj98jYiIyCr8BVEiIiKyFCsb6+W6+rOSarYhIiLaYRg21kUWiePdiIzPq/ml5l86hoefnBRblicfa+7xyAeBiddQSi0tvzw15EHPWFzrIvEcHcUPjhZ1lSzE0XM0Ls4pu1F6EF9Qy4WCY2rb6OQxjeU9Y5WuloiIqDoMG+vCBk/vMdz74rGSgUMGjeOnPeh7zC22LGN2EO3jbowmEkjIV5ez5PIBBApCQDKcRotcd6Id/89WF2JTppDy8iTQ2rTknDJoFByzNb88IM6gnT8xCvd4O8d5EBHRmjFsrJeb6+B9fGngmB+PICKCRu8RN+puVgtLucMB10waF9SsLov4qRh8h7y5wOBs9iGZyW/lCvmhYglsB91wzaVVlSKL6XHAfXBJ1NCWB4+Yjtkmp1OIhsXyB3NHQ5MIL5nzrG4QEdHaMGysJxU4Dowf1wKHFjRmXKJhXyZoSLVe9PUDAa0LY1A0/Xmxw/muDc/hGJALFEVqm+DGJKZld8lsFJH6Tnhr9VV5F5CescOxZLmURKQjf672cLIg2BAREa0Gw8Z6E4HD09srAscX0VNt0DA0dOtdGDJ05MZRiGOM6N0dudeJfFWikKxGAJMvZ5GaisHXbFQpimWQNo3fyPNhwHwe+TK6c4iIiFaJYcMKMnB87Xk8HVpB0DDLdano4SFyMj+AczmyKwXjUUzM+dDSoBYWcKLFnyw4ZmpMTsvlMQRMA1CJiIjWA8PGVjE7mO8q6ZiEe6RbG4tha+vDQH0E7cY68ao4aFPrSokhVt+SG8tRzNmVKDhmIOPQKiXOrlEE5wL56yi6g4WIiGg1+KNeREREZClWNoiIiMhSDBtERERkKYYNIiIishTDBhEREVmKYYOIiIgsxbBBRERElmLYICIiIksxbBAREZGlGDaIiIjIUgwbREREZCmGjU305isv4Mwzz+LM82fxplpGRES00zBsbKLr55O49L1TuDSVxnW1zErZsR54co+u34lSGFzuQXVVW89jERHd2Pggtk10Kd6LM0/MAK4v474n2vAhtby0LOJH2xERm+c0BjF6wqs9sbWU1JAHw/ZR9LWV22IdLMTR05FGZ0J/Su2y5NNtD8fUjHjrIYuvj4iINh0rG9uKC8GRBBIJ9aoQNLYkLWgAA8b1J0bhxgW1koiIdiqGjR1BL/l7tFcP4guyCuJBIAokw+1i2aDYQnWjDMkpQVYkxPK4XJbbT21jmjfIKom+XLyMrhgZHjoiSCKGgFjeM6Y6aLRjG9vr587xt5gqIDZ42/Jz+XOLl3Gdgjx3z1hcf4/i3NPavLkzSL5/eR75Z+F1FxzT1IVkfj+FxzIUHqvgOLn3pH/OBV0t8r2r85T8zIiIbkAMG9uebPACQL9RLeiDt1Y04icSGPDr3RSJsl0cMUwipO03GgIiHR6EzfMnjQYyhQkMqOOPIogIwrKBbuhGYiQIF3xatULvDhGNdMck3EYFph8IGA1tQwt80UDpxl0El/ZxN0a1c4hrR+F2yXAaLXLdCS+amn1Ijk/nG+/ZCcQKQoxOBoSCY7bmlwdM78c93r7M2IwspjOm4/hFuNLCkA1NrS7EpvLBKPvyJNDaJNaU+cyIiG5ADBvbSlILBMa3Zb0xtsFRD2TOr6Yh86FTjZewHXRroaFgfiatOjmc6O4ymnK9gS0nOzYsGv5OEXjUAhkwzMdRjXv++iURmE7F4DuU7xZyykCRyXexuEL+fJgoOKaIN1Ni3+YlUQPT40DwiOmYbXI6hWhYLH+w8P1U/vxEeOsqvDaD9jnNpVXw0c/pPii3rP4zIyLa6Rg2toK627FXTVZWOGbDGFjp7CrVgK8vczdCeziplpYRDeS29XgCiCGDdK5rQ6+6GBUFc3dJ7HA+SGmDSHONeDEnWvwxTMhqxEIcw3NB+Bv0NXkXkJ6xw2GEngKFoU2+H3OwKUl2GZmvzVDbBDcmMS3f32wUkfp80FrRZ0ZEtIMxbGygxdfn8b6aBq4h+5Mz+uQtt2GPPrVKhQ34et+uqXVHZDpzIWc0VPlbut51kw9FeteOWpkjr3kAvuiEGv9QNPhVvioMgJXVBdl9ke+2KMUccsz0bp+Cc+WqECXIoHHKketGSfTnKxt61QKYfDlbUGFZ6WdGRLSTMWxskKuvfBevHvoCpr7xLM5OzeDsYC/SP7wm1uzBbfffrW+0ZmvpUinvQiYJl32/mpNdBeW/pctuBYTDBYM0DdmxwcLlcqyFNqE32PkxIlXQxn9MIJoxui2KyepHsuCYqTE5rVdF9DEXRdSg2eI12fPiJPWOXKCRocJMe8/jUUzM+dCiKiwr+cyIiHY6ho0Ncu2K+LBvuYb3EqdwsacXF0dkVWMPdn0ugnvvr7auUVj+1++K0O+IMJbJgY+57pUHg6Lhz9+NslrOrgHYtePIc4SRrjd9S6/1olM23mKd1oUj5vv67YXXqRp2W1sL0ubl2m2w+uBVW1sfBuojaDfWiVflCo0eGmJzbjSV7CqR150oOGYgowcG2e0UnDN39RTewVLM1hYq2H4C5sqGoHWliGupzw9SrfiZERHdYPijXhvovTcyODc1gzfm3xJzt+PWj7tR/xEbdumraUuRt75OoKXaHysjIqKyGDaISjHGaWy3H04jItqC2I1CZGbcdXI4U3DbLBERrR4rG0RERGQpVjaIiIjIUgwbREREZCmGDSIiIrIUwwYRERFZimGDiIiILMWwQURERJZi2CAiIiJLMWwQERGRpRg2trOCp5TKZ3lUeniZXL+2B7IRERGtBsPGjuFEdyKBbvWI81Ur85h1IiKi1WLYWC/X1Z+VVLMNERHRDsOwsS6ySBzvRmR8Xs0vNf/SMTz85KTYsrTUkAc9Y+a1pm4Prdrg0R8QVrarRG7fg/iCmhXkMcvtY17nORrXr0s+hKwjgiRiCIjluespOr/5OrNjPfAMxRE/KtexIkJEREsxbKwLGzy9x3Dvi8dKBg4ZNI6f9qDvMXfZp4g6m31Ijk/nw8jsBGL+FjjFZPblNNwjCSQS4tXvQ+zw8o26DAEBDOj7iFfLVEBECEMKE7l1owgigrAMEA3dSIwE4YIPA2JdX5u8WhFiRACx96vzi+3d4+2F4SU6CRyR67q16yUiIjJj2FgvN9fB+/jSwDE/HkFEBI3eI27U3awWltLQAt9MGhfUbGoqBl+z3nTb2rrhrdUm9e3UZHkpRMNA8MF80+/sGjDt50R3l7HOhqZWl5peKjs2LELPgGksiA3eQyLwTJnijr8zf31ERERFGDbWkwocB8aPa4FDCxozLgSXCxoaJ1r8MUzIisFCHMNzQfhzDbx+p4nejWGuUFRih6NCANC6P9Qx28NJtbQ0l32/mlLucMA1ly7bJURERGTGsLHeRODw9PaKwPFF9FQdNHSyK0VWDLIvTwKtTarLRQaNYTiMbpSEuUJRSQZp0/gNLKTFEp0MGu2ZTnW8BEZD5SsbUjJj1FuUi2kk6x1lu4SIiIjMGDasIAPH157H06Hqg4ZGdpFEJxAVqcB9UDXlWkgwVSnkWA41WZ6skiQReS7f1ZF6Tg781F3IJE3Viiymx8tXNmwH3XBFA6YxGlnET+W7eIiIiJbDsLGl6F0psTk3moxwUetFKJTR7g7Ruj2mUFVlw9k1iuBcINdVMtGcr4jI8Rv2cLtaF0a63lTZEOfrFNeQuxtFzPeNBJE5rM7vaUf60Dr8ngcREd0wbrp69erP1fS2s7i4iJqaGjVHREREWxErG0RERGQphg0iIiKyFMMGERERWYphg4iIiCzFsEFERESWYtggIiIiSzFsEBERkaUYNoiIiMhSDBtERERkKYYNIiIishTDxiZ685UXcOaZZ3Hm+bN4Uy0jIiLaaRg2NtH180lc+t4pXJpK47patpHko+a1h61ZYSGOHs8g8s+dXSv5qH2P6emzRES0XTBsbDt6o2s8zdWzrg36Uqkh9fTXYrOD8ByNw6KoUoIT3Qk+bZaIaDti2NhOZAPvCQD9CSREw6u9RhyYsKo6ITibfUiOTy8JFampGHyHvLCpeSIionIYNraNFAYPZxAcKfp2X+tFd5vR5BdVPYaKah5a14ZadzSOC2qxQVYxjH1z1YyGFvhmJjG9oM9qxHGGoz60yOswH1O8SndzyOsqrMDIc5m3LXnuAvIYPYgb11HyvFnEjxZdg9xOVWBkt5GxvdUVISIiymPY2C5mJxBrdKOpVs0vIRvaADKh0VzVYwABU8MtGuuOSbhFWNHWHwGGw0m1Tm+IA2IPfd9RuMfbVaPtRIs/icmX8wEg+/Ikkv4WsUZOp/PH7PchdnjljXj5c5dX+rw2NLW6EJvKX4G8VrQ2iTVZTGfcGNXOIT4bfwyB4jBGRESWYNjYTuod5bstZqOIIIhQrsohYsKDQUB1gWTHhhHzd8JrhJVaL0Ihl5pJIRoGgg/K+CDpjXbmvB4wzMcRR8L0eBK+Zn1bW1t3/piyCqImq1f53OWUO6/toBuuubTpWgH3QfmZ2ODtynf7yO4hIiLaGAwbW0Hd7dirJivKNaJlFIeRWgfsM+lcd4nLvl9NlZJEpCPfLdEeTiKZUXvWNsEtokxUVhsWpjEpQo0/15Vj7roJIKaWrkyFc5dV5rzatapuHxnA6k0BSxvzovY5vLorJSKilWPY2ECLr8/jfTUNXEP2J2f0yVtuwx59qrxSYyeKFYeRhTQyjQ4YEaO4Ab+QyXejAD4MqC6G3KursNoguyfy3RKSbPCH4TC6MxIDq6hsSJXOXUql88prhdbtow1iVRUYLWiccuS6UWTXCxERbQyGjQ1y9ZXv4tVDX8DUN57F2akZnB3sRfqH18SaPbjt/rv1jSpywh8CIh2mQZLSQhyDclyGFkYiCJsGV6aei+SCgda9EB0uGGA5HFXT2riMymMYjP3DuW4JQYYZ2OHIVQ4mylQ29sPRGMOEMQ5DNPyBqs5dYsCntMx55bViPIqJOTWIVciezxRUfmQQISKijcGwsUGuXREf9i3X8F7iFC729OLiiKxq7MGuz0Vw7/3L1jU0trY+8Y3cXtDl4DkJ+LVxGvJ3KAZgD7fn1g3bR9FnjOGo9aLPvK/YrzM3ZkPs3TWK4Fwgf1zznR+S7J5oTCIJ0yBVbdxHBgFjnylZoyjFBu8hOYjT2K4FA361Slj23MWWO6/WlRJDrF4fxCrZ2kIF55hYZQ2GiIhW7qarV6/+XE1vO4uLi6ipqVFzW997b2RwbmoGb8y/JeZux60fd6P+Izbs0ldTRbLrZAItie5cgCAiou2BYYO2B2PMxQn+kBgR0XbDbhTa2ow7SOQPmh1h0CAi2o5Y2SAiIiJLsbJBRERElmLYICIiIksxbBAREZGlGDaIiIjIUgwbREREZCmGDSIiIrIUwwYRERFZimFjE735ygs488yzOPP8WbyplhEREe00DBub6Pr5JC597xQuTaVxXS3bSNmxHvSYnhK7rhbi6PEMovxzZK0kn6NiPMxNTpd4cmyOXL/B16l9Nss8bI6IaAdh2Nh29MbTeHqpx+KGMjXkKR1I5M+IH43DoqiiK3sOc5hYjnwabgLd6lHzq7ae4Uk+gTfRB6/x9Fwioh2OYWM70Z4TEgD6E0iIBlR7jTgwYVV1QnA2+5Acn17S4KemYvAdsvhZJQ0t8M1MYro4VMxOIObvZGNNRLRNMGxsG+LbvHwY2UjRt3TxLbm7zWjyi6oeQ0Xfw7Vv52rd0TguqMUGWcUw9s1VM0o1+OI4w1EfWuR1mI8pXqW7K5Z2VchzmbcteW440eJPYvJlc9TJIn5KBJ1m5wrOXVgFMZ+reB/zulxVRYa8jgiSiCEglueur+j85gqQ7KLyDMURPyrXFVVEtP3yy7Rtc8dRy4u2kczdXiWvk4hoi2LY2C7kt/lGN5rKfpsXjfDRADKh0VzVYwABUwMoGt2OSbhFWNHWHwGGw0m1Tm/IAmIPfd9RuMfbVUO8tMHPvjyJpL9FrJHT6fwx+32IHS5qWKtQ/twlKisL05ic0YPOas5deK4EWqYCIkIYUpgwXUcQEYTl59fQjcRIEC74MCDW9WnhTn6eEdhzVabC69ZEJ4Ejcl239lmVlsV0xo1RdT0DfhFoZEisbYK7MYaJ3PHEduOA+6B+7pLXSUS0RTFsbCf1jvLdFrNR0eQEEcpVOURD/WAQUA11dmy4sOuh1otQyKVmUoiGgeCDRpNoQ1OrC5nzegNmPo7e6CX1yoJga+vOH1NWQdRk9SqfGw1+8a7ylRVz0Fn5uYvPJd5b14BpPye6uwqvoxz98xwwVZls8B4SgWfKFHeq6uoR+3Xlu6NkuNIVfQ4yZMEIm9VfJxHRVsCwsRXU3Y69arKiubRq8MsoDiO1Dthn0rnuEpd9v5oqJYlIR7403x5OIplRe8pv2SLKROW3bK3RC8Kfa2TNXTfmKsFKVDi31pgCkedkI65/u8+HhdWc2w5HhQBg7tKQ11HJks/zDgdcy/0dlaKNxVHv43D+XdgOunMhL/VcBHbTGJmVXCcR0WZj2NhAi6/P4301DVxD9idn9MlbbsMefaq8coMlzYobuoU0Mo0OGE1ivgHXXciYGym9i0AvzatX0bdn+a1dVhbQ2qQaPdnYD8NhdGUkzFWClah0br3RdUUnkCr4dr/ac2eQLhh/Ij4jNSkb8PZMZ+4aRnOVn9KKP09cTCNZqfpUigwapxy5bhTZHZSjhTz5d57ChDFGRljpdRIRbTaGjQ1y9ZXv4tVDX8DUN57F2akZnB3sRfqH18SaPbjt/rv1jSpywh8S3/A7im75XIhjUBtXIMNIYd+9/DZsBAO9wR7O7yv2G46qaXHsFmOsQBnG/uHcuAFBa6hNlQI5rkRNFtoPh3n8gWhgAys4tzF+YfikKehUfW4zffyJXiXRyc/IiFwyfOWrFXp3UTn65xEwjdEwDVwtpcSATyl7XkQdU0CRd/nk6VWdyecmkFFdR9JKrpOIaCtg2Ngg166ID/uWa3gvcQoXe3pxcURWNfZg1+ciuPf+ZesaGltbn/jmay/ocvCcBPzaOA35exIDsIfbc+uG7aNqMKMgf9vBvK/Yr9P0jdjZNYrgXCB/3OLfsdAa/KRomE2DVLVxHxntDg1tnylZoyhFjWc4bGzXggG/WiUse26t0XUhOWMKOlWfu1DxuSaa8xUROX4j//mFka43VQzE+TplKBLrtEG38vMcCSJjvCdPO9KHVv57Hra2UOH1FL0LrSslGoPdFGIqXicR0RZ009WrV3+upredxcVF1NTUqLmt7703Mjg3NYM35t8Sc7fj1o+7Uf8RG3bpq+lGIascIuyFTlj8OyVERFsEwwbRBsuNuTCNSyEi2snYjUK0QYw7SNrDdgwwaBDRDYSVDSIiIrIUKxtERERkKYYNIiIishTDBhEREVmKYYOIiIgsxbBBRERElmLYICIiIksxbBAREZGlGDY20ZuvvIAzzzyLM8+fxZtqGRER0U7DsLGJrp9P4tL3TuHSVBrX1bLtSvt1zKPxwkfcV7DS7YmIaPti2Ng2sogf9ZRsoGXDrT2JdBNpT6RdwYPFVro9ERFtXwwb24pL/F8E4U0OFkRERCvBsLHNuI8MwB4OI76gFhSTjy8vqH7IikiP2j6FQY+YHhvUHggmX4OzYvFs0bxJakhfLl/56knhceRyrVtkKKXWS3Kb/L7Fxy3e3nyeXPVGXldRJUdupx+r8PibXdkhIqLyGDa2HSe6++2InFzteIckIpkWJBIJJPp9iB0WjfWUeX5QNOM6GQgCGNDXJUbhHm83hYb8cfraijtDZBAIAP1yP/EaCcKh1pSWwoTpPEGjetPQAt/MJKZzwUpsF/WhpUFMzk4UHB+VAhgREW0qho3tqKEbA/Wr7U5xIfigery5bMyXzGeQVlWQaBj5dbChqdWFzHnjnKb9iokgEPMPoFuGAqnWC68xXZIIULlHruvn0TnR4k8ifVHNasdtEUsF8Rnkj98Ed6OaJiKiLYdhYyuoux171WS1nF3LdKesiyQiHfmuivZwEsnMBbWuvOz5DFz2/WquOlq3iuk8BmezD7EpWWvJIn4qYwo4asCstk87IjNqMRERbTkMGxto8fV5vK+mgWvI/uSMPnnLbdijT61Avjtl+eZ/tXwY0Lo2TK9cBaKyakKJQQaN9kxn7hyjIaOyIchqS3QCqYVpTMKNplq5UAaNdqQPGdc1iiArG0REWxbDxga5+sp38eqhL2DqG8/i7NQMzg72Iv3Da2LNHtx2/936RiululMCpkoAah2wm8Y5ZMfCq/zWL7swYggUDPqsju2gG65oID++YyGOuJwuMeBTupBJmiohWUyPm96Puo6J59JAa5O6VfYC0jMuOO7QZsTxRRBhZYOIaMti2Ngg166ID/uWa3gvcQoXe3pxcURWNfZg1+ciuPf+ldc1DLI7xaemdU74Q8h1f4TRuepv/c6uUQTnArnuDY+8A6WabptaL/pGgsjIwadyv45JwAgGJehdQu3qHGGk602VDUHrSolm4D5oDERVVR2ji+dkGnZWNoiItqybrl69+nM1ve0sLi6ipqZGzW19772RwbmpGbwx/5aYux23ftyN+o/YsEtffUORXSdhhErcyUJERDsNwwZtgvyYi9wdJUREtGOxG4U2kHEHSTsi9aZbY4mIaEdjZYOIiIgsxcoGERERWYphg4iIiCzFsEFERESWYtggIiIiSzFsEBERkaUYNoiIiMhSDBtERERkKYaNTfTmKy/gzDPP4szzZ/GmWkZERLTTMGxsouvnk7j0vVO4NJXGdbVsu5LPOin1RNf1oB3bePrsQhw9FR4IJ7ftGbPiKsqz8r0TEe0EDBvbhvqp7xKN2mY0sMVsbX1InPCqR8CXol9/7rHzJgVhYjnyibKJPnhr1fwqpYY86/aZLf/eiYhubAwb24pL/F8E4U0OFqtjQ1OrC7Gp4lCRxfQ4EHzQqeaJiGinYdjYZtxHBmAPh8t2I2jdDAXVD1lRMLodUhiUXRBjg/B45APRVKVhtmjeRFYAjHX5SkDhceTypdUJuU1+X3lc20E3XNEJscZkNirikxtNtYXnKtstoXWjDOaPoc3n97mgFusKr0G/fr3CEogCyXC7WJ4/lvYectubu2qWvl+zwvde6pyC/IyL3pN8v/rnXWYfIqIdgmFj23Giu9+OyMnVjhFIIpJpQSKRQKLfh9hh0cBNmecLG98ABvR1iVG4x9tNYSR/nL624g4E2XgGgH65n3iNBOGQi2ub4G6MYcIUaFJTMbham2AT+0yYzhWsqoIjztMxCfeIOs8RYDicVOuE2YmCa4AW0mzwnkhgwA+4QqNiXbf4ROW2g2gP2zGgnV9u78ZkhynUVHy/JiXPKZY3tMA3M4lpU4CZiPrQIp98W24fIqIdgmFjO2roxkD9artTXPkuC9kALpnPIK2qINGwuXtD7wbJnDfOadqvmGg8Y37TI+RrvfBq06KhPyQCTa4rRTa4LrgPysZbhKiuwnMtJzs2LM7TmR+/Ic4TCpn2E59T/hpk0FHTS2QRPxWDr18FD0kcq9NvDkYV3q9Z2XM60eJPIn1RzWqfUYt+vqqvk4hoe2LY2ArqbsdeNVktZ9cy3SnrQnyb78iX99vDSSQzhR0VpWTPZ+Cy71dzRWSgiQ7r1601uPmwYO7GkOeqRtnzaNSgWu2Y7YjMqMUlueC4Q00q++3mcFWt8ud0NhtBS4abjCm8rOQ6iYi2H4aNDbT4+jzeV9PANWR/ckafvOU27NGnViDfnbJ8879avny3gvHKVR8qKx9K9G/4ky9ntS4UX7N+PBk02jOdufOMmisUFRSf50LGCCmyAW9H+pBx7aMIVqwYmKoOijyW/c6V3GOyzDm1oDWB1MI0JtU4lZVfJxHR9sOwsUGuvvJdvHroC5j6xrM4OzWDs4O9SP/wmlizB7fdf7e+0Uqp7pSAuQpQ64DdNDYgOxZe5TdlGQpiCFR7S6qJPhA0kB/fsRBH3DROQ37DT46HMWyMWRBkw56vUsg7VJavbOjnUVUSSZxnOKqmRQRLz5iqFbKBL/s5qDtlTONV9GPlr69Y6Vtnlzun/plOPJcGtHEq0kquk4hoe2LY2CDXrogP+5ZreC9xChd7enFxRFY19mDX5yK49/6V1zUMsjvFp6Z1TvhDyHV/hNG56m/Kzi7xLXsuoMr78mW+Q6MC+VsYI0Fk5OBTuV/HJGDuotAGSyaRNMYsCHq3kLw7RO4TRrq+isqGPI+s7hhdPSeBzlxFRFV+cuvSsJs+B+eDciBm/m4U+VsZo6EMAtr5xasjjU5j8GjVKp9T0rpSohk1TkVbsuw+RETb3U1Xr179uZredhYXF1FTU6Pmtr733sjg3NQM3ph/S8zdjls/7kb9R2zYpa+mbUp2AYURqnyXChHRDYxhg2hN8mMucneUEBFRAXajEK2KcQdJOyL1ptt8iYhoCVY2iIiIyFKsbBAREZGlGDaIiIjIUgwbREREZCmGDSIiIrIUwwYRERFZimGDiIiILMWwQURERJZi2NhEb77yAs488yzOPH8Wb6plREREOw3Dxia6fj6JS987hUtTaVxXy2ht5NNYPat4Ui0REVmHYWObKPlI84U4euRTS2cH4TkaR+Fa/ee0B1+osO7P1f5qqSF/rhQG5ZNIyzXe2vnFcYzHx8vrMM8XkQ8sM56ymv+578JX8b76PkXbVQgTzq4EEl0re1YrERFZi2Fjm9AfiR4tCAap5yKw93fD2eBHEBFEzQ31bFR/ZscDFdb9hhed/hiGzSFGBIjhuSBCuSeYuuCaGy75aHl5/qSazml0IXOqONxIKUTDxVu7EBwR4SBhvAYA+Vj6ojDhCo2atklgAPKx90tDEhERbU0MG9tFbVEwUKHArz0AzAbvIR9iuUY+i/ipDIIPym/4ldYtDTFagDnkFXsZ7HC3ApMvF8UHdf6gX80b6t1wYxLTReEkOzaMTCgIn5ovzYluETh80dLhxiCrFwPFIUkpqACpyotRETGqJkurRLKCo8JLmX2IiGj1GDa2EXMwWBIKzNUNrXLRCW+tvqriOnOIKQgweY62TthLVFXQ2gSHms9ziHBjR+S5gq0RDQPug0u3XsqJFn9yabgp4mz2ITk+XaKCkpd9OQ23UTnpF4HrsB4oluw7O4GYv0Wcufw+RES0egwb24kRDIYGS4QCo4IxiEFT5UJXaV0+xAwuqWoYZAAwVxJSmIj60JnrainS0FJYndAac1PAWcZ+u0tNVXCHA8ttZWvrNgUucU1qUpueSeOCmk1NxeBr1j+TsvsQEdGqMWxsBXW3Y6+aXI4WDKIxraqwpKnXKhgx8X9uNBU37JXWqRATEwGipaiqYdDOq6oBepeIX6sElOaEP2R0vRR221TjQiYJ+51lgozhYhrJekeJYGSmBrhqr4B47wY9PE3ISs+Sak65fYiIaLUYNjbQ4uvzeF9NA9eQ/ckZffKW27BHn1pebRPcjS64D5ZqZm1oanXBVSqIVFwnmt9m8R1edSWUJANJveyKkV0i9vJVDcVmdL0Ud9ssRzb+FUKPTgaYfDWiNBkahuHIDUAdKKhSyPcbm0oh+/KkKbhV3oeIiFaHYWODXH3lu3j10Bcw9Y1ncXZqBmcHe5H+4TWxZg9uu/9ufaMtTmugD4tv+5VCSY5ePQgcXi4UmMjBmR3qDhu1aCl5y2y7fjeNFkjkfImBnAtpZGCHwwg5sitHTWq0rp4JRDNyLIkKTsvtQ0REq8KwsUGuXREf9i3X8F7iFC729OLiiKxq7MGuz0Vw7/1V1zU2l+yKaXRV3SUiu15cjUsHnOYlEekwuizEqyONzkRChYi8ZLg9v42nHelDieV/S6PWi1Aog4Cx3xSKqhR6GIrNmbqVlt2HiIhW46arV6/+XE1vO4uLi6ipqVFzW997b2RwbmoGb8y/JeZux60fd6P+Izbs0lfTOpC3tU40Lw0sRES0eRg2aAcxxlz0VT9GhIiILMduFNoBjDtIAsiEQgwaRERbDCsbREREZClWNoiIiMhSDBtERERkKYYNIiIishTDBhEREVmKYYOIiIgsxbBBRERElmLYICIiIksxbGyiN195AWeeeRZnnj+LN9UyIiKinYZhYxNdP5/Epe+dwqWpNK6rZbRB5BNmPYNIaTP6L5AueXKsYXYQniF9yw2jXV8P4gtqnohoG2PY2CbkA8Z6xrJqTjEaTNkYHo2jcK169PoLFdb9ubnBzcufS/0MeLmGVju/qZGW11Gh0c6O9Yj1xvn0a8g/zVV/Fe+r71O0nel6Sn4uUsnPpBwnuks8bXbFVnTOZdR60ZfgM16IaGdg2Ngm5OPaEY4WBIPUcxHY+7vhlI9+RwRRc0M9G0WkfgDdD1RY9xtedPpjGDY31iJADM8FEWqzqQUuuOaGS37DludPqumcRhcyp0o1uClEw8VbuxAcSSAhGnr9NQAcLgwTkis0atomgQEEROjQQ4uz2Yfk+PSS86WmYvAd8sJ4F0REtHkYNrYL8U23IBioUODXvo3b4D3kQyzXyGcRP5VB8EHnMuuWhhgtwBQ00na4W4HJl4uac3X+oF/NG+rdcGMS00XhJDs2jEwoCJ+aL01WGAbgi5YONwZnlwgcxmfR0ALfTNH55LVFfWgRn01hZWRpFUcnKzjmLgvjwW6l95HVlNwxVSVDO8/hGDATQbtYnqvQqOqPsb25CqNXZeL6uYorItp++XOXOmfxNpK8DuMcJfchItoEDBvbiDkYLAkF5uqGVrnozJfgK60zhxgVIPQAk+do64S9RFUFrU1wqPk8hwg3dkSeK9ga0TDgPrh066WcaPEnl4abIvmKxtLtsy9PIulvEWuymM64MWpURMT7DCw79kJ27wSAfqOS0oIJGSJyUpjAgFo3qn2uYfHZ2dr6kOgXUaoxqJ1P75IRoaVDVp+MY43CPd5e0FWUDKfRItedqFSFKX1O1DbB3RjDRO544v2Oy89ZHqnMPkREm4BhYzsxgsHQYIlQYFQwBjFoqlzoKq3Lh5jBJVUNg2zQzd0toiGL+tCZ62opIqsN5urE7ARiflPAWcZ+u0tNVXCHA8ZW2vXnulJkg5uEr1lVdbry70cGlGXJMCaa5vxn60S3DBE5Yr7L+PxsaGotf62ymhPzD5jGgqi/h6l84HGF/OKIyyl3Tn06c179vSxMYxJuNGmfc/XXSURkNYaNraDuduxVk8vRGtao+Kbd2iSakCJaBSMm/s9ocEwqrVMhJqa6HkoxN+h6l0ilRtIJf8joeinstqnGhUwS9jvLBBnDxTSS9Q79M5Df8I3KjdbgmsKCGrSqvQoqFBUYxy3D3DXTvmQcSiGXfb+aUmRImkurYFS9cue0HXTn/l6Kq10ruU4iIisxbGygxdfn8b6aBq4h+5Mz+uQtt2GPPrU8rXTuUqXyYvo3WFepIFJxnYgH8lu/1vVQhgwk9bJBl10i9vJVDcVmdL0Ud9ssxzTeojwZYGKqeiHp701WDGQXSi6IyaBxypHrRtG6OapRFAay5zNqSm/A2zOdqnsigdFQ5YpBMnNBTSnmkFSliufUgpYcs6JXm4zPbaXXSURkJYaNDXL1le/i1UNfwNQ3nsXZqRmcHexF+ofXxJo9uO3+u/WNtjgZSGKHA4hVCiU5etdL4LA5FCxDDnjUxjh0Vzi+HFPRrt9NYwok8hu+KzqMcG7MggoJpoZd3qGyLG3AqfnuncK7aGTVJV+t0LtsytGvKWAao1EckoqUuXW28jll0AImn5tAxvT3spLrJCKyGsPGBrl2RXzYt1zDe4lTuNjTi4sjsqqxB7s+F8G991dd19hcsium0VV1l4jsenE1Lh1wmpdEpEN1cchXRxqd4lt48e9dJMPt+W087UgfEt/Wc+MRFK3ikxRHzHcT2dpCCM7J22T1fSeWuRdG50T3SBAZeQuutt8EWkwVEWfXAOy56wkjXW+qGKiBuLm7UWq96Cs4ln7tK/09j4rnFLSulGgMdlOIWW4fIqKNdNPVq1d/rqa3ncXFRdTU1Ki5re+9NzI4NzWDN+bfEnO349aPu1H/ERt26auJ8mSV5yQQqniXChHR9sCwQbQF5cZcFFdwiIi2IXajEG0hxh0k7WE7Bhg0iGiHYGWDiIiILMXKBhEREVmKYYOIiIgsxbBBRERElmLYICIiIksxbBAREZGlGDaIiIjIUgwbREREZCmGDQu9+coLOPPMszjz/Fm8qZYRERHdaBg2LHT9fBKXvncKl6bSuK6WrYp8ToanB/EFNX+DSw150DOmPxtVTnuGUtr0etB+wbPEk1fXwopjEhFtJ/wFUQtdivfizBMzgOvLuO+JNnxILS8lftSDiNi0mCs0ir62zX0Ul/acjjAQHOmDVz1RVdKXq0eX+wdKPMcjhUFPAJl1fg8yYAzb1+eY63ksIiIqjZWNLcJ7IoFEQrxGgnDBhwE5LV6b2wjKsOBBGO6lD2efHUT7uBuj2nWOao9yN6oNhuzYMDJ+sef4NL/VExHdwBg2tgOtG2VQNP0642Fd2svchSACQG55ue0LumNkmBDzs/L4an1Bl4QT3Vrgcaj5vNRUDL5DxuPPbfAe8iFZECqymB4H3A/6RVSZxLS5C8h4P+brNZ1Xu14xr3WRqPWDs2plEXOXiqbkZ6CHJmO5vn1WqyYFokAy3J7b1ji3ofxnZ5w7pR2n8HyFCo9Z6loEed1FXS3y+Pr7LrMPEdE2wbCx3RRUFMTL6LqQjdVh5CoioyEVEOT28gmixvYjounvMDeKSUROASFt/QB80UDZhj0vi/ScC4471Kx0hwOumTQuqFksTIuI4UZTrQ1NrUDkueJmOIbAVIt+TaUqI+I6JpqNaw4ic7iKMStlP4MJoD9/LITD4lgiIJ1IYMCvd1UlEt0iWhVZ9rOTQWUYOKKvH/CL91QQ1kooeS1ieUMLfDPmUJbCRNSHlgYxWW4fIqJtgmFjuylu1BWt0tCfbzBtbV4xLb69nypcjlovOkWjOJELFC4EjxgVCidaROObOb/cN+cLSBePL6l1wK4mpdRzEaC1STuu7aAbruhEQSMN2VWUG+NRojLiH0C3bGgl7ZqTmHy58nWV/gyEhm7TsZrgblTTFVXz2cmgEsqNY3E2+4C5dEF1Yomy1yI/+yTSF9WsCBgxf8sarp+IaOtg2NgIdbdjr5pcM9Hg9fUDAa2kbnzLLlFpyFm6fL/dVTZQyHXL2w9HcYO3kEZGTerfyl1wH1TjTUo00kvIEKUmS1n+uip9BnqXid4N0V5yIG5pK/vslnsPuvLXIsNKbEr+jcqgk0HwQSPmrPb6iYi2BoaNdbT4+jzeV9PANWR/ckafvOU27NGn1of4pquV1GXoyPXzm74VF1i6/EImCfudax14WnTci2kkGx0ihgjyW7nsnukwGkh9bETsVIXbP+X+9Q5VYVmqumsu9RnIhrod6UOqG0J22VRdGVjvz26Za5FdKbIClOuCkgvXcv1ERFsDw8Y6ufrKd/HqoS9g6hvP4uzUDM4O9iL9w2tizR7cdv/d+kbrLdelIsdFuBA7nB9PkB2Li+mly+XgzGFjLMCq6d0e+fAgv4kbA0bVtDHGIPcaKBqTEMNwboxGCoOHxT7NuQ4LIDqcH5cwOyjCynLXXO4zkF0+pgqFbMirqgys7bNbMnBVs9y1yK6UGCaeS+e6oJbfh4ho62PYWCfXrogP85ZreC9xChd7enFxRFY19mDX5yK49/51rGvIQZCqWuDpEN9/R/QxBba2PoyGMqp7xYP2cdnZsXS5pyONzlKDIVeqoRsD9RG0a8dtx2TrqD6uQGsMSzXI+piE/EBRn/juHlbvRf8tjty4BMnvBk6qaz6cQVC9z0pKfwZOdPfb81WWk2nYTZUB54NywGX+bhSz9f/sKl+LpHWlRDP5Lqgq9iEi2ur4o17r6L03Mjg3NYM35t8Sc7fj1o+7Uf8RG3bpq8kgb32t0HDLW0XbM50lfiRse5LvJ4wQfziMiG5YrGyso10ftKPe2477Hvq8eD2Af8qgQZC/N7IeY2SIiLYvhg0iS8iBnbLrox2RetNtvERENyB2oxAREZGlWNkgIiIiSzFsEBERkaUYNoiIiMhSDBtERERkKYYNIiIishTDBhEREVmKYYOIiIgsxbBBRERElmLYICIiIksxbBAREZGlGDaqdV39WUk12xAREd1gGDaqkkXieDci4/Nqfqn5l47h4ScnxZblpDDo6UF8bBAejwc9Y/qW8vHjcl57DaW0ZRr5GHZjuWdQ7K0ULM8fR5LHMs9r2x6N69ek7Tcozq+fb3BW26Lw/Ma2Qmqo9DnKXhcREVEZDBtVscHTewz3vnisZOCQQeP4aQ/6HnOLLStJIpJpQSKRQF+b2HJ2EO3jboyKeblsAAHVsItg0jEJ94i+PJHohlPbXy6PwN5vLB+Fe7w9FxyWF8MkQtq+8imkMmgUnL9V30ouD4irWXqOctdFRERUHsNGtW6ug/fxpYFjfjyCiAgavUfcqLtZLSzLheCDRvOcRfxUDL5D3lxAcTb7kMxcEFP74WhMIn1RX27Ijg0j5jc/rtwG7yEfYlPV1hd86JQhR5PF9DgQPGI6f5ucTiEaFstz12lDU6sLmfMyBJW+LiIiokoYNlZCBY4D48e1wKEFjRkRIKoKGqXFDue7KzyHY8BcWsQAESJODABqnbly4bLvV1PKHQ64tH1W6gLSM3Y4atVsgSQiHfnrag8nVQgqf11ERETlMGyslAgcnt5eETi+iJ41Bg2t0pHrklCvE0alwYlubZls3HsQX9AWqkbf5GIayXqH2melMkir4xbyYcB8TfLVZVQ6Sl8XERFROQwbqyEDx9eex9OhtQQN2T0BRE7mB2WWlu+6sB10wxUNmCoKqiumWQ8CtjvtSI5Pq+OJdScjSGrTpTjR4k8WnD81Jqfl8hgC5sGqJbFLhYiIqnPT1atXf66mt53FxUXU1NSoua1O3o0yDMdIH7ymrgt510cgqmYEX78cvCm3DSCmlrlCo/qAUkneDdKRDxH69mpGBoyj7YjMyGkXgv1uTJ4CQrJaou2XRmfRoM6C8/sHVAXDfBxJVmDkdVe4LiIiojIYNoiIiMhS7EYhIiIiSzFsEBERkaUYNoiIiMhSDBtERERkKYYNIiIishTDBhEREVmKYYOIiIgsxbBBRERElmLYICIiIksxbBAREZGlGDaIiIjIUgwb6y2bxFMnE5i/rubXYnYQnmWfvkpERLS1MWysN5sLn/noJHqOr1PgqIYMJUeXe1Q9ERHR5mDYsEDdJ46hr3kSx09OblzgICIi2qIYNiwiA0dvYxKRFQWOFAY9Hni016CYK5QaMtaJl6pkZMd64DkcA2YiaBfLB2fLb0tERLQZGDYsVNcaRFAFjuUb+yziRwNAfwKJhHy1YEKGiJwUJjCg1o0iiAjCY1nY2vqQ6PcBjUGMinXdDeW3JSIi2gwMGxvgnbevqakKZqMiEgTh18KC5ES3DBE5Yr7LqaZtaGp1qelSVrItERGRtRg2LDQ/HsGxF+9Fb69HNPlVqHdU3E7rMlFdI+3hpFpa2kq2JSIishLDhkWMoHHscS/qblYLlzOXLuhuyZ7PqCk9PLRnOlXXSAKjofLVipVsS0REZDWGDQusKmg0tMA3E0FUDfCU4y6iporEhUwSLvt+NZfF9Hj5asVKtiUiIrIaw8Z6y07i6fEVBg2NE90jQWQOG3eRTKDFNGbD2TUAe7hdrQsjXW+qVjT4tUGgxt0oFbclIiLaYDddvXr152p621lcXERNTY2aIyIioq2IlQ0iIiKyFMMGERERWYphg4iIiCzFsEFERESWYtggIiIiSzFsEBERkaUYNoiIiMhSDBtERERkKYYNIiIishTDBhEREVmKYYOIiIgsxbCx3rJJPHUygfnran4TyEfMe47GCx5XT0REtFkYNtabzYXPfHQSPcc3MHDMDhaEC1tbHxInvLBpc1nEj+pPgyUiItoMDBsWqPvEMfQ1T+L4yclNrXAQERFtBQwbFpGBo7cxiciKAkcKgx4PPNqrB/EFtXghjh7PIFKygqHW94zpdQyty+RwDJiJoF0slxUMbdlQSqyVx2tHZAaIHRb7HY1jeii/r05uYzoXERHROmPYsFBdaxBBFTiWHz8huzsCQH8CiYR4jbgx2SEChlor4gICUy1qXRAIh7WAoHWZ9PuAxiBGxbruBrW5xonuxKi4BsAnj3vCi6ZmH5Lj0/nrmZ1AzN8Jb62aJyIiWmcMGxvgnbevqakKZqOIIAi/ERZqm+BuzCCdqzj4MNDl1Ce1dUmkL+qzK9LQAt9MGhfUbGoqBl+zOi4REZEFGDYsND8ewbEX70Vvr0cN1lyG6grRu0pk90e5QGGDo15NrpgTLf4YJrQBoylMRH1oKaiGEBERrS+GDYsYQePY417U3awWLsc/oHeTmF6F3SLrw/lgEJmplOpCaRHxg4iIyDoMGxZYVdCQ3RvRwMbcoiq7YeYmMDiVQfBBRg0iIrIWw8Z6y07i6fEVBg2NE90jQWTkXSNGV0q1P8zV4EcQ+btRCtngPeTL3Y2iH8+GptYMYnNuNHFgKBERWeymq1ev/lxNbzuLi4uoqalRc7QS8vbYMELoa6tqNAkREdGqsbJxQ0ohGrajk0GDiIg2AMPGDSY1JLto5O95dHNgKBERbQh2oxAREZGlWNkgIiIiSzFsEBERkaUYNoiIiMhSDBtERERkKYYNIiIishTDBhEREVmKYYOIiIgsxbBBRERElmLYWG/ZJJ46mcD8dTW/qVIYLPlwNiIioo3DsLHebC585qOT6Dm+ToFjIY4ez6CIDVVYsq0T3YkEuhvULBER0SZg2LBA3SeOoa95EsdPTm6RCgcREdHm4bNRLDQ/HkFkxoXgETfqblYLK5CPfW8PJ/UZ/wASzRPwHI7p84IrNKo9Er5gO/gwkOiGc3awxLYXMOgZhmOkD95auTSL+NF2cU3aJrnjERERWYlhw2JG4OgNuVGxWZdh4ZQDoye8hdvJrpGONDploNAWiMAwNI2mLn07+RTXAEQw6RJrl2wrx2wYYUMPGpOtRsBIIT62H16GDSIishi7UTbAO29fU1MV3OGAayaNC2q2PBu8KmhIzmafmlrGwjQmEUQoFy6cDBpERLQhGDYsJKsax168F729nspVDanWi75+IODxwLPcgFBZBdG2Ey9T10lFF9NI1juWvw4iIqJ1xrBhESNoHHvcW9V4DU1DNxKJBBIydByNI6sWFzC6W+R22rZVVjakuXTpYxIREVmIYcMCqwoaZhW6VLLnM4CpQpGaqrKy0dAC30wE4TEjbsgxG4weRERkPYaN9ZadxNPjqwga5q6Rjkm4R9Qgz1ovOv0xrXulR4QDW1sIwblAbtsJmCobRdsWkr+5MQB7uF3tG0D6TnaqEBGR9Xg3ChEREVmKlQ0iIiKyFMMGERERWYphg4iIiCzFsEFERESWYtggIiIiSzFsEBERkaUYNoiIiMhSDBtERERkKYYNIiIishTDBhEREVmKYYOIiIgsxbBxw0th0NOD+IKaJSIiWmcMG1tIaqjU01q3iiziRz0YnFWzREREVWLYWC/X1Z+VVLMNERHRDsOwsS6ySBzvRmR8Xs0vNf/SMTz85KTYsjRZNQhEgWS4HR7PIFJqeXasR8x79NeQsdSogsQxWLBOdoks3VY7hpiX+xjHKluhWIijxzhGbjt53HZEZoDYYbH8aDz3PszHNFdlyl03ERHdeBg21oUNnt5juPfFYyUDhwwax0970PeYW2xZmvdEAgN+wBUaRSLRDadcODuI9nE3RhMJsUysR6CgQU+G02jR1g3AFw2Ihn2iYL4gUIj5iWb9OImRIDKHS4/TyL6chntEbdfvE+FCBh8nuhOjCDYCvn6x/IRXex8yUATEVWnbivXu8Xb9nEXXnejS3g0REd2gGDbWy8118D6+NHDMj0cQEUGj94gbdTerhVXJIn4qBt8hvWGXnM0+JDMX1JwMJn49lIj/bdGCSuF85rypjuIfQHeDmq71otOfxOTLS+sstrZueGvVTEMLfGpyqRSiYSD4oBEkbGhqdennvMMB10wa+SslIqIbGcPGelKB48D4cS1waEFjxoXgioNGntZtYXRHHI4Bc+myXTErsd/uUlPFTF0xngDEGStIItKRv772cFIPQyLM9PUDAW15vkuIiIhuTAwb600EDk9vrwgcX0TPGoMGIPY3ujSMl+rCWKsLmSTsdxYfSQaNYThy5xyoUNmQfBgwX5t8GV0mDd36vAwdpjEeRER042HYsIIMHF97Hk+H1hI0ZLcEEDm5Tg11dDg/RmN2EIGoDy1Gt4phIY0M7HAY3SizExUqG7KrJobAcoM/2aVCRHTDY9jYQpwPBgHT3Si2tj4M1EfQnuvWWMPvXPjdwEl1nMMZBEfUIFSzWi9CoYzq/hCvKVm7MNjgPSQHjIrlqlLh7BpFcE4OTFXbGz8OJsJMblnHJNylzkVERDeMm65evfpzNb3tLC4uoqamRs1ROfKukfZMJ+8KISKiTcHKBhEREVmKYYOIiIgsxW4UIiIishQrG0RERGQphg0iIiKyFMMGERERWYphg4iIiCzFsEFERESWYtggIiIiSzFsEBERkaUYNoiIiMhSDBtERERkKYYNIiIishTDxka5rv6spJptiIiIthmGjQ2RReJ4NyLj82p+qfmXjuHhJyfFlpVkET/qgcejv3rGjK1TGFTLtNdQSi3XHy/vGYrn9zsaF0cxHUebVxbi6PEMIi730Y7Vg/iCOoZpPq/8eY1jpWYHc+vz10tERDcSho0NYYOn9xjuffFYycAhg8bx0x70PeYWW5YjA0I7JltHkUgkxGsA7tzyADIhY3kCAwgUNuzRSeCIXDeKICJo94QL5sMFISCGSYS044yGgEiHB2Hz/EkjnFRxXnGswFSLvn4kCITDRWGFiIhuBAwbG+XmOngfXxo45scjiIig0XvEjbqb1cJSFqZFCAgi1GbEESe8cno2KuKCeblY86Bo2Men8xULfye8tXLChqZW15L5ZOaCnFF86FTHsh10w1U8P5OGtnU15xX7DnQ59cnaJrgbk0hf1GeJiOjGwbCxkVTgODB+XAscWtCYcSG4XNCQLqaRrHeUrnwUL691wG6EAiut6Lw2OOrVJBER3VAYNjaaCBye3l4ROL6InmqDhmEubaoamBQvX0gj0+jAfjVrmc06LxERbSsMG5tBBo6vPY+nQysIGg0t8M2Yx1ekEJfTS5aLNc9FgNam0lWQ9bJZ5yUiom2HYWPbcKI7MQB7uF3d3RFA+k7ZrBcv92DYPoo+01gKa2zWeYmIaLu56erVqz9X09vO4uIiampq1BwRERFtRaxsEBERkaUYNoiIiMhSDBtERERkKYYNIiIishTDBhEREVmKYYOIiIgsxbBBRERElmLYICIiIksxbBAREZGlGDaIiIjIUgwbREREZCmGjR0jhUFPD+ILanaDZMd64BlKqbkiC3H0eAbFlRER0Y2MYYOIiIgsxbBBRERElmLY2Ezvv4N33lXTb/89Xv8vYfz1U/3I/N07ePvvxvDT/zyIn/5wDP/zTX2T6++I7d/Xp8u6KLsuPPDI19E4smqxlBpSy4vXad0dxjpTt0e55SWYjz04qxYaZgdz6wq7XGTXj7HfxncBERHRxrjp6tWrP1fT287i4iJqamrU3HaziHT4m7j2sYfxy//sMv7+27+Dd66oVfgFEQPfEWFEze59AB965BHs+enz+L/nPoZ/2vm/4Ga1Kk823AHEGoMYPeGFTS4RASCAASS6nPr6IaBbm84ifrQdk62j6Gu7IPYbhmOkD95aeRyDPJ5puQwMpxy5YxvkmI32cBK+/gS6G9T8uFvfToaVjgiSfuMazOeFNp0+pO9HREQ7Fysbm+YdvP/u/w/vvhJD5lsqaOz+X7Dn47+Pf/Q7P0b94e/jQx/7df1v6MoLuPSHj+L/nv6veO+dy3hP278UF4JH8mHA+WAQruiEqkg4VdCQ/v/t3Q90G9WBP/pvGhySgL3RM07iNJFWm0LAdbpkIVHq1HZ/R2zXZn/wKyDHKXHbH/Qdr9Ou1pBKbeN2KaGpQys1wWhb3JwfZbc4bbxy4RW2kZetSmMvaeRC09d4XSDNOlICTjBGeQYcGzvhzZ25kkay5D9xhsT293POLHPvzNwZKT07X997R2PC+lKbXM+HZV0I4dOyKEVbm+CvrEoEkMISVHSE0SOLSZQwEQsMppuKYUvarwI+3XnLN1cgdOCQEjtMsFiByEl93wsREc1EDBuXzDKYt+zGghxgjvleZN/dDMv2x3HdnWVYvCwbVy1bheUbd6NwRxBLHW4suHEDsqybsXjjBtHvMTF5FpjlqqA+OSKHLURvhEYJADt9QK1WnzQE0uyM728XvSaIIDzeUEfKOUdZYlEikaagugXFBxxq+3WtDB1ERDMVw8YlNNd0M6yffwjXf6kGljVWZGfJDXpZ2bjGVoGVn6nBShFEsmX9RPSGEVlnQb6yqg5vRKoQDAbVpcUdu+ULBahR60XoSMydsLlb4vtrS+pQywU4HUbIapG9LyLoiHa10DFqrgcREc0IDBszSgjep2MTMKMI7PICpevVG3tPJASbWcQOIYpDB2I9G3qJIRUxHAKPJ+2kTTEXZOI9EX40xfftQmOtHxVFsWGVGA6pEBHNZAwbM4oNLnObHPZwwGv1ob5M60MoqPbB7NGGLOx2D8LWWM+G/okQbfKmOv8irxz1DWZ4N8W2KUumH+8aUwWK4ZFtOBFxy/bVyaKJtsVE1ti1EhHRzMKnUYiIiMhQ7NkgIiIiQzFsEBERkaEYNoiIiMhQDBtERERkKIYNIiIiMhTDBhERERmKYYOIiIgMxbBBREREhmLYICIiIkMxbBAREZGhGDaIiIjIUAwblF5vAHX2RmR69drk3vxKRESzGcMGERERGYphg4iIiAzFsHEpnR/C0LBcP/s6XvuFBy8/2oDI8SGcPd6KYz9txLGnWvHG29ou54aU/c9r6+lFEdhmh92uLbFhjmhrXbzOvic2MNKFxlidvQ6BXlmdqrMxzbExPbrzJbchhllix3G4hYhodpszODj4vlyfdvr6+pCbmytL000fwp4deG/tvVj2l/14/ZH7MTQgN+FKJQYOKWFEFhfejkVbtmDesZ/jre61uLZqNebKTQkiaDjQXtqC+jKTUu5CoDUf5cubYd9rQcvOcohajbZveHMQNYWyKpWYs7HJi1ClD8HqAlluR/G+epTnaWHC2WyDS5bVUFIL+II1yFfCjSNSpR1HRESzHns2LpkhnB9+EcNH/Ig8LING1mrM+/hDWHz/flhrn8SitRu0f6GBZ3Bm931469DzGBnqx4h6fIreQ2iHC241aAgFKBfrSyywdYTRI2s1JlisQOTkeD0OFfDFAkPeehSvCyF8WisKNrdbCxpCYSVc6/xo61RaX24GusNKpCEiImLYuISWwbxlNxbkAHPM9yL77mZYtj+O6+4sw+Jl2bhq2Sos37gbhTuCWOpwY8GNG5Bl3YzFGzeIfo/RTocRslp0vRdSXjnqGwCnOqSReLqkoLoFxQcckxjm0AJKZrrthTVoKW2HQ5xzW4Chg4holmPYuITmmm6G9fMP4fov1cCyxorsLLlBLysb19gqsPIzNVgpgki2rE8nU2+CcvMPBoMIitARv/mbUL5TqQtqoaOxU62cgijC3TZYlmglU1m9ek41dIya60FERLMJw8ZMUViCig4vPPFeCjFnIyV6jDekMs5va6QKeZrj+0ZbPfCiGOtjwyoSh1SIiIhhY8YoQE3QB7NHGxqx250ILzclP02iTvCsUfZMfmrFCZ+cVDo5NrcFbbINh8cMn5yEmvT0i5g0mjQ5lYiIZhs+jUJERESGYs8GERERGYphg4iIiAzFsEFERESGYtggIiIiQzFsEBERkaEYNoiIiMhQDBtERERkKIYNIiIiMhTDBhERERmKYYOIiIgMxbBBREREhmLYmDG60GivQ6BXFg0iXrJWl/o2WUXXHnvaekF9MRtfM09ENGsxbBAREZGhGDaIiIjIUAwbl9L5IQwNy/Wzr+O1X3jw8qMNiBwfwtnjrTj200Yce6oVb7yt7XJuSNn/vLae0ekA6ux22MWyLQD9wIYY6lDrlSVpyKNXd4yyNHbKekG/TWmvR1an14PAtlg7o4d09OfPeA57IzjgQkQ0szBsXDJ9CH/va4i8cATvRl/A0Yc/jeiv/Rg5sRf9378Fxx57AGd/9yOc/c0DeMO7AydP9aHvxb3o/skRnJMtjBaCdy/gDgYRDPpQ0eFFs7ypi3kTTviUerGtBcUHHPEbfvSlMIr3iXplaaiAvzZ2w+9C46b2xLatQJMnpG5JJ+RpArZq+/oqlWt5Whcbmp1oK5Lt7HMhUhsLIynnCNagQD2AiIhmCoaNS2YI54dfxPARPyIP34+hAaUqazXmffwhLL5/P6y1T2LR2g3av9DAMziz+z68deh5jAz1Y0Q9Ph0bXFvLYVLXC1BSCUROih6MLjR7ANcdsdu4CetLbXKbUiqrQXmeugoUlqBCrkZbm+CvrEpsyyuH222ThdFsbnd834IipZXucKJnpdKHmkK5rrRTpYSR9pfE1nxY1oUQPq1tIiKimYdh45JZBvOW3ViQA8wx34vsu5th2f44rruzDIuXZeOqZauwfONuFO4IYqnDjQU3bkCWdTMWb9yAK2UL48k364NBCN5NiWEMhyeEUCQ2KCKeZIltc8IvawWbOV+uTdISixJ9MktcmwnlO31ArXb+pOEVIiKaERg2LqG5ppth/fxDuP5LNbCssSI7S27Qy8rGNbYKrPxMDVaKIJIt6yetAj51mEK3VIueDhE0mmCJD2P44j0bQiKQaHoimYdRJkO0Y16u9cGIXpgaeW7Eh1eIiGimYNiYFcSQih/OdL910RtGBGZYYkMlnW3xng3TTcWwNTclbv69ATQ1y3XFWL+tMYq+nc5GOJsrUBIbVonjkAoR0UzEsDFLFFS3wNXtjA+jxJ8WUedhROCM1R8UfSCSsq2+wZwYftkFVI0xZ2NMlcXALtlObQSufbGJoPohHAfaS1sSczuIiGhGmDM4OPi+XJ92+vr6kJubK0tERER0OWLPBhERERmKYYOIiIgMxbBBREREhmLYICIiIkMxbBAREZGhGDaIiIjIUAwbREREZCiGDSIiIjIUwwYREREZimGDiIiIDMWwQURERIZi2JgxxAvNjH89e7S1buJves1AtGFP9wZa1QfzOYiI6IPDsEFERESGYtggIiIiQzFsXErnhzA0LNfPvo7XfuHBy482IHJ8CGePt+LYTxtx7KlWvPG2tsu5IWX/89p6RqcDqLPbYRfLtgD0Ax5de2S9siQNhfTqjlGWxk5ZL+i3Ke31yOoYdUgktl03NCLOVdcaQKM8Lt3Ai/56ks4pZPwcYpgldhyHW4iIpgOGjUumD+HvfQ2RF47g3egLOPrwpxH9tR8jJ/ai//u34NhjD+Ds736Es795AG94d+DkqT70vbgX3T85gnOyhdFC8O4F3MEggkEfKjq8aJY3cREKnPAp9WJbC4oPOOI3+OhLYRTvE/XK0lABf22jcksXlBv7pvbEtq1AkyekblF1NsJxoBgtaptBpXVnUogJecIoEdt2lsMk6+KanWgr0o5rcdvg36sPFPrPobRr9cKhBpkoAtucQINWHwzWozxPO4KIiC5fDBuXzBDOD7+I4SN+RB6+H0MDSlXWasz7+ENYfP9+WGufxKK1G7R/oYFncGb3fXjr0PMYGerHiHp8Oja4tsZu7AUoqQQiJ8UtvAvNHsB1R4G6Bcoe60ttcptSKqtJ3LQLS1AhV6OtTfBXViW25ZXDrQQDjXLj3+tHxeZEkCgoqkAokuj7sLkrlavIoNKHmkJt1XRTMWwdYV2vif5zKO3e4YKtuU35FCZYrLHPRERE0wXDxiWzDOYtu7EgB5hjvhfZdzfDsv1xXHdnGRYvy8ZVy1Zh+cbdKNwRxFKHGwtu3IAs62Ys3rgBV8oWxpNvjgUDIQTvptjwgx0OT0gXDPRDE074Za1gM+fLtfT8tYk27bXKkd3htEMmY8qzwCxX09JtL6jWemXE+ab6VAwREX0wGDYuobmmm2H9/EO4/ks1sKyxIjtLbtDLysY1tgqs/EwNVoogki3rJ60CPjksEV+qRb+DCBpNsMSGSsTwi3aASt9TIfREdMMoogcifpxc0g2ZTFVvGJF1Fmixx4TyneJcyUNBRER0+WLYmBXEkIofznS/bSFu5DDDEhsq6WyL92yowxvNTYlJmL0BNDXLdeWmv74U8O5KP/lzlM7GjBNFRwvB+3TsWqMI7PICpetTQgyHVIiIpguGjVlCDD+4up2JIY/YkxzqPIwInLH6g6IPRFK21TeYE8Mvu4Cq+JwN5XZfVq9N3oy3meapkgtig8vcJtt0wGv1ob5MRA0xQTRxLjHhVasnIqLL2ZzBwcH35fq009fXh9zcXFkiIiKiyxF7NoiIiMhQDBtERERkKIYNIiIiMhTDBhERERmKYYOIiIgMxbBBREREhmLYICIiIkMxbBAREZGhGDaIiIjIUAwbREREZCiGDSIiIjIUwwZJ4lXzF+tFaqNFW+tgT/fWWZU4t3wxHBERzTgMGyQVoCYYRE2hLI5Je/uqUcGEiIhmFoYNIiIiMhTDxqV0fghDw3L97Ot47RcevPxoAyLHh3D2eCuO/bQRx55qxRtva7ucG1L2P6+tp6MOVdjt2qIfsuhsTNTbGyG2aMMaAbWHQqtLHsro2mNHXWuX3C6W2DaxnwPeDsBfq9RvCyAqqnsDqEs5Rzqi3di1jOoZOa1rI9auShviSb4OIiKaLuYMDg6+L9ennb6+PuTm5srSdNOHsGcH3lt7L5b9ZT9ef+R+DA3ITbhSiYFDShiRxYW3Y9GWLZh37Od4q3strq1ajblyU5wIFHstaNlZDpOsUon6WsAXrEGBUoy2BtBTVo58JWw4PIBrXz3K88SO4obeBIssi1DgbLYltie1I4ZRHAhvjg27JB+bjgg3Dk8IFQ3aMWr5QLG8XnG8E/51rvj1q+eHD8Hq/JRzERHRdMOejUtmCOeHX8TwET8iD8ugkbUa8z7+EBbfvx/W2iexaO0G7V9o4Bmc2X0f3jr0PEaG+jGiHp9iiQW2jjB6ZDGm66BfucFrQUMwKUEjto7KqozhQLC53YnthZVwrfOjLe08jXxY1oUQPi2LmVT64oHBdFNxyvUqwWZrIigV3OGCrblNiSEmWKxA5GSin4OIiKYXho1LZhnMW3ZjQQ4wx3wvsu9uhmX747juzjIsXpaNq5atwvKNu1G4I4ilDjcW3LgBWdbNWLxxg+j3GC2vHPUNgFMdaogNY0QR7rbBskQtTJF200/PhPKdPkAMqyjnn9DE0TwLzHI1Ld32guoWFB9wqG3XtTJ0EBFNNwwbl9Bc082wfv4hXP+lGljWWJGdJTfoZWXjGlsFVn6mBitFEMmW9ekU1iAYDCIoQkd8zsMEehwmZLzgoj3NEgyK0HER5lX0hhFZZ0G+WhBhRrSthQ4+BUNENL0wbMxE8SEVE9aX2uCvTUzYFHM2Mk3eTBXyNOuO88CLYqwfY9hFoxtSEfM8kiZ6jiUE79PxsyGwywuUrlc+gR6HVIiIpiOGjZlC/8TJpnYU79PmaZjK6tHijsjhFTscB0QcmBib24K22HEeM3zxyacmlG+u0D2Non9axIH20pYLmMxpg8vcFm/Da/WhvkycTftND61emzSq1RMR0XTBp1EoLfE0SJO5hTd2IiKaMvZsEBERkaEYNoiIiMhQHEYhIiIiQ7Fng4iIiAzFsEFERESGYtggIiIiQzFsEBERkaEYNoiIiMhQDBtERERkKIYNIiIiMhTDBhERERmKYYMmLNpaB/ueib4zdvLGbL83gDp74u21REQ0fTBs0MXHYEBERDoMG0RERGQohg0jnR/C0LBcP/s6XvuFBy8/2oDI8SGcPd6KYz9txLGnWvHG29ou54aU/c9r6+lFEdhmh92uLXWtUVnfhUZZpy66oQhtaCKQOG5bQGlF145almI9Ep2NadtKpbadup84dpMXIfjhVOrj16i2Lfcdp9dDvN4+1m5jp6yMyXht+u+gDoFeWU1ERJccw4Zh+hD+3tcQeeEI3o2+gKMPfxrRX/sxcmIv+r9/C4499gDO/u5HOPubB/CGdwdOnupD34t70f2TIzgnW0gmAoID7aUtCAaDyuJDcbzeiYg7Vh+ED05dEFE0twNbxbYWuOCFw+5JKnv0+4qQcLBEtqVs705pK0a56TsOFKMl9ZyFNQjuc8GGCviU+voyk7KzEgQ2taN4n7ZvsAFw6kOOXrMTbUXafi1uG/x79ftlujbtO0CDbD9Yj/I87QgiIrr0GDYMM4Tzwy9i+IgfkYfvx9CAUpW1GvM+/hAW378f1tonsWjtBu1fYOAZnNl9H9469DxGhvoxoh6fovcQ2pVo4FZv3kIBysV6Z7MSF/T1ypY7XMCBQ4mbdGWVvPmasL7UNqocivSIgqSEhOoCuW5C+eYKhPRtqZSb+14/KjaXK3toCoqU/ZLaSYi2NsEfP6eisAQVHWGk3bvSh5pCbdV0UzFsSftlujYTLFYgcjJtfCEiokuMYcMwy2DeshsLcoA55nuRfXczLNsfx3V3lmHxsmxctWwVlm/cjcIdQSx1uLHgxg3Ism7G4o0bcKVsIcnpMEJWS/zmniS1Ps8Cc6ab+WQtsUCJJ2n5a2PDFspS6we6wymhRKfZmdjX7oQSwRAeb6hDfA65mpbu2gqqW1B8wKG2n7YnhoiILhmGDQPNNd0M6+cfwvVfqoFljRXZWXKDXlY2rrFVYOVnarBSBJFsWZ9Oppt5an1vGJF1FuTL4pRkDDk2uGLDIrFlZ6KnI5VNN8yjLRdhqCPp2kwo3yna1ULHqLkeRER0yTBsTBfq0IN+fkUXAuocidR6ZcvTXqB0fcYb/9j8aNKdo7HWj4qi2NBFjBh+Aby7Msy7SCGGQ+DxpJ20KSaDTrwnYmLXxiEVIqLLC8PGtFGAmqAPZo82VCCGIsLLRZxIrbejydwiJ2ZeiAoUwxM/h5h4GptDoWcqq4fPKiabxoZGdE+O5JWjqlL3NIpSrm8ww7spse9YT7lklunadE/XKIsTvil8fiIiutjmDA4Ovi/Xp52+vj7k5ubKEk2ZeDx1UxhVwRolwhAREV0c7NkgIiIiQzFsEBERkaE4jEJERESGYs8GERERGYphg4iIiAzFsEFERESGYtggIiIiQzFsEBERkaEYNoiIiMhQDBtERERkKIYNIiIiMhTDxqzXhUb5ArPGTm39or+eXbxzxd6onCkdcc66tG+EJSKimYFhY5aLtjbBX+lDMBhETaF4g6z4r9xIRER0ETBsEGzmfLlGRER08TFsGOn8EIaG5frZ1/HaLzx4+dEGRI4P4ezxVhz7aSOOPdWKN97Wdjk3pOx/XltPL4rANm3IQyx1rVFZnxgKUZc9iQGLaGudWu7aE9ueGLIQdQ5PCCGPQ6kXwxzJQxpie11rQGt7WwBRORwSEG3q2lLPkdJ2Wp2Ncj9l0V2j6rRoW24T55LVQuLa9Z+ZiIimC4YNw/Qh/L2vIfLCEbwbfQFHH/40or/2Y+TEXvR//xYce+wBnP3dj3D2Nw/gDe8OnDzVh74X96L7J0dwTraQTAQNB9pLW9Qhj2DQh+J4vRMRd6w+CB+cyTflZifairRtLW7Au0u7mRdUi7INNvXYGhRoeycJecIoEe3uLIdJrfGjHe5EW5vs8OjLsu3R/HAeLFH3C+5zwdbcpAsmIXj3Am6xTVl8Vi8cMoyIIONUPpF6nLLUl2lXQURE0wfDhmGGcH74RQwf8SPy8P0YGlCqslZj3scfwuL798Na+yQWrd2g/QsMPIMzu+/DW4eex8hQP0bU41P0HlJu8i644zfbApSL9c5meJPqlS13uIADhxI3/UpffB6G6aZi2DrC6NGK47K5K1NCSAWq5LnUtlLLGduugK9atpS3HsXrQgif1orKWeDaGgsz2vXbmtvUCaWm5WagO5whwBAR0XTAsGGYZTBv2Y0FOcAc873IvrsZlu2P47o7y7B4WTauWrYKyzfuRuGOIJY63Fhw4wZkWTdj8cYNuFK2kOR0GCGrJX5DTpJan2eBOdNNX2yTq5eOCRarXE1Hf42FNWgpbYcjzfAKERFNDwwbBppruhnWzz+E679UA8saK7Kz5Aa9rGxcY6vAys/UYKUIItmyPp1Mf+Gn1veGEVlnwbSd9ply/aayem2YRoSO1LkeRER02WPYmC4KS1DR4YVHNyk0INZH1StbnvYCpevT94J8UMb8bY1UIXifju0ZRWBX+uvnkAoR0fTEsDFtiN/A8MGsPjkinsxwIrxc3I5T6+1oMrdMs4mUNrjMbfL6HfBaffHrTzzpoiy1gC8+UZWIiKaLOYODg+/L9Wmnr68Pubm5skRERESXI/ZsEBERkaEYNoiIiMhQDBtERERkKIYNIiIiMhTDBhERERmKYYOIiIgMxbBBREREhmLYICIiIkMxbBAREZGhGDaIiIjIUAwbREREZCiGjWmjC412Oxo7ZfFSGPNNruL66hDolUUiIiKJYWPaEG93DaKmUBaNMqlXwxMREY2PYYOIiIgMxbBhpPNDGBqW62dfx2u/8ODlRxsQOT6Es8dbceynjTj2VCveeFvb5dyQsv95bX205GGKrj121LV2IbDNDrtdLIneiGhrHex7utR9tG3Jwy+iPmk4prNR3V/97yYvQvDDqRxT1xqVO6QQ+8l21eP0ToueEbltWwD6FvTXk7FtIiKacRg2DNOH8Pe+hsgLR/Bu9AUcffjTiP7aj5ETe9H//Vtw7LEHcPZ3P8LZ3zyAN7w7cPJUH/pe3IvunxzBOdnCeEKeJmBrEMFgEL5KJSDob/zNTrQVaduC+1yI1E5gPkVhjbqvDRXwKcfVl5nkBj3lPAdL4u3ampt07Ybg3Qu4xTZxTVYvHPKaRABywqcdl7FtIiKaiRg2DDOE88MvYviIH5GH78fQgFKVtRrzPv4QFt+/H9baJ7Fo7QbtX2DgGZzZfR/eOvQ8Rob6MaIePz6b243yPG29oKgC6A4nehIqfYn5HXnlqKoMof2li9GboASR6gJtNW89iteFED6tFZUrgmtrOWIxouAOEUba1B4X03Jz8vUREdGswbBhmGUwb9mNBTnAHPO9yL67GZbtj+O6O8uweFk2rlq2Css37kbhjiCWOtxYcOMGZFk3Y/HGDbhStjApSyzKrT6zfPNYWy+UCRarXE0nzwIlYmgKa9BS2g5HmuEVIiKa2Rg2DDTXdDOsn38I13+pBpY1VmRnyQ16Wdm4xlaBlZ+pwUoRRLJl/UXWEwnBvPwDHrroDSOyzoJ8WTSV1atDKGroSJ3rQUREMxbDxkyln0vR2QhncwVK5LCK6OXwH4zd7LvQWOuX62lM6lHYELxPx/aMIrDLC5Sujw+rxHBIhYhodmHYmKkqi4Fd8umP2ghc+2ogZ1rAVFaFimanfDKkDSUNFXKLQp3fMc7TKBnZ4DK3yXYd8Fp98Ymg6hMyar24HsC3MzG3g4iIZrY5g4OD78v1aaevrw+5ubmyRDHixu6IVCEYm8hJRER0CbFng4iIiAzFsEFERESG4jAKERERGYo9G0RERGQohg0iIiIyFMMGERERGYphg4iIiAzFsEFERESGYtggIiIiQzFsEBERkaEYNoiIiMhQDBsU17VnYi9fU1+qlvEV8V1otNcl3jhLRESzHsMGpdfZCPu2AF8DT0REU8awQURERIZi2DDS+SEMDcv1s6/jtV948PKjDYgcH8LZ46049tNGHHuqFW+8re1ybkjZ/7y2PpocnmhthN2eGO5QhzSUsrrohzZ6A6iL1dsblaNlXVJvRRSBbaOHPNQ2a/1AhxcO5fjGTrkhhRh2iZ171D6ndedPOqf4HLHjONxCRDQbMGwYpg/h730NkReO4N3oCzj68KcR/bUfIyf2ov/7t+DYYw/g7O9+hLO/eQBveHfg5Kk+9L24F90/OYJzsoXRQvBGShAMBlFfZlKHOhwHitGilEWdD04ZQpQb+qZ2FO/T6oPBGhRoDUyIqawewYYKYJ1LbbumUG7Qa3airUhrv8Vtg3+vPlAo17kXcMeuy6qEFjUIiXDjBBpi11WP8jztCCIimrkYNgwzhPPDL2L4iB+Rh+/H0IBSlbUa8z7+EBbfvx/W2iexaO0G7V9g4Bmc2X0f3jr0PEaG+jGiHp+ODa47YrFBuXHv9aNiczmU2KEqKKpAKNKjrOXDsi6E8Gmt3hCVvngIMd1UDFtHGOLMGuU6t+qu6w4XbM1tSgQywWIFIicTsYSIiGY+hg3DLIN5y24syAHmmO9F9t3NsGx/HNfdWYbFy7Jx1bJVWL5xNwp3BLHU4caCGzcgy7oZizduwJWyhYnw18aGJJRFDH10h5UYYkL5Th8gt2UaBrlo8iwwy9W0dNsLqltQfMChXtdEnnwhIqLpj2HDQHNNN8P6+Ydw/ZdqYFljRXaW3KCXlY1rbBVY+ZkarBRBJFvWT4gNrvhQiVx2xnoUClCj1onQcYnnRvSGEVlnQb5aEEFIXJcWOgwPQkREdMkxbExbJqwvBby7xns8VTekInoYOtpxSAaPaKsH3g5tfVyTehQ2BO/TscmqUQR2eYHS9TIExXBIhYhotmDYmMbERE518mVsGCU+ZKJ/4sOB9tIWOb+iAJVuJaBs0rZ5UAXXOlGfRmElXBj7aZTMbHCZ2+Ln91p92oRWETy2xa7LDidi9URENJPNGRwcfF+uTzt9fX3Izc2VJSIiIrocsWeDiIiIDMWwQURERIZi2CAiIiJDMWwQERGRoRg2iIiIyFAMG0RERGQohg0iIiIyFMMGERERGYphg4iIiAzFsEFERESGYtggIiIiQzFsEKKtdbDvib2lNUVvAHX2RmTYSkRENC6GjWmka48dda18JTsREU0vDBtERERkKIYNI50fwtCwXD/7Ol77hQcvP9qAyPEhnD3eimM/bcSxp1rxxtvaLueGlP3Pa+upAtvscDYDIY8Ddt2whjoEYrfLpQ6BXrlB2aNRlDvFMIjcvi2AsfpFRM9JrK3GTlkZ09kY35Y85CLOEztOf34iIiLNnMHBwffl+rTT19eH3NxcWbrc9CHs2YH31t6LZX/Zj9cfuR9DA3ITrlRi3pASRmRx4e1YtGUL5h37Od7qXotrq1ZjrtykJ8JAk7kF9WUmrUIEgFrAF6xBgSiL+RWbwqhSyyIEOOFf50LLznKII8TxTvgQrFb3jhOBxeEJoaIhiJpCWT5QrB2ntulFqDJ2XFQJPg60l4rrECHIgfBm7TgiIqJ02LNhmCGcH34Rw0f8iDwsg0bWasz7+ENYfP9+WGufxKK1G7R/gYFncGb3fXjr0PMYGerHiHr8eJSb/l6/EhBk0BDyylFV6UdbvFfCBtdWLWgIBXe4YGtuSz/ZUwkTscBguqkYto4werSiogK+eEAxoXxzBUIHDilXYILFCkROch4JERFlxrBhmGUwb9mNBTnAHPO9yL67GZbtj+O6O8uweFk2rlq2Css37kbhjiCWOtxYcOMGZFk3Y/HGDaLfY4JssCyRq1K+2Zb55p9ngVmujmm8/ZZYlDNrCqpbUHxADO1w8ioREaXHsGGguaabYf38Q7j+SzWwrLEiO0tu0MvKxjW2Cqz8TA1WiiCSLesnJITwabkq9URCMC+P9WWk6A0jss6CfFm8YKfDCFktssfEhPKdQQSDWugYNdeDiIhmPYaNacuE9aU2+Gt1v4HRG0BTcwVK4vMnQvA+HZ9KisAuL1C6XgsJYr7HOBNGE/xoivdadKGx1o+KouR5H+J6OKRCRETpMGxMI2LOBXRPo5jK6tHijsAZexokPjk0xgaXuU0+KeKA1+pLTC6dlAoUwyPbcSLibpHzO8RkUXluZRGTTy+sfSIimsn4NMqMJZ5GaYJlXz3K82QVERHRJcCeDSIiIjIUwwYREREZisMoREREZCj2bBAREZGhGDaIiIjIUAwbREREZCiGDSIiIjIUwwYREREZimGDiIiIDMWwQURERIZi2LiIhk//EYEXjmJAFIa6EXimDb898Q6G1a1ERESzE8PGxRLej22P/iue3f8UGvY+hSf+5Rk8G3pe+e+v8N9yl0tDvCOlDoHe2Lr9or4GvmuPHfY98ffOzjqz/fMTEU0Ew8bFkmPCEnVlECe6juC34TNqCXPeQV90BP19l0MPRwFqgkH5xtYLob3lVR9WCqqDCFanvm5+5hLhoi7+uv3Z9/mJiC4Ew8ZU9TyHf/zmd+B65Dl0qxVXYOHya1G4fD6yRHHgKJq838bXdj2OZ3vUHYiIiGYVho0peuXQYfSNDGJgRJQWoeieL8O75W58cctXsfOeNUi8ueUMDh8ZO21EW+tgt9vl0ohY57xav6dL67KX2/W9C9pf211qr4O2PTZskko/pKJJOue2ANS/2XsDqIvVKYt2LnGsA94OwF+b2Df1L339Neo/Q/zcnbq2Mww/jPl51GtrREBed+x7mNR5Y59TSvoOdNekfe8BeR2P4HHlv85mIORxxM+R+vkztZX8neqvj4ho5mPYmKJVt96L21bIwnUlqPzIfFkAFn7kVpRfp63nbqjGtz6VrxXSiuJQpBgtwSCCyuKr9MOpv1k1O9FWpG0L7nMhUpscGkKeJmCr3N5ghnfT+Dc0cWN0HNCds1TWvxRG8b5YWxVKuBBtiSGYFrjWARUNSv3Ocpi03eNEe85uV7y9YAPgTLqxh+DdC7jV7T5UKJ8p0/yRsT+PH+1wq9vEkNDkzqt8TqsXjth329mY/B3AmRQe0Nwur+M+fGGn+HcBbO4WpVyjfCMpMralBJ5N7YnvNN2xREQzGMPGVF2Zh0LzIlnIrC9yFKeGZCEtE8qrEzfwgqIKuSZV+hJzLfLKUVUZQvtLiZuize1GeZ4sFFYqocCPtgw3co0Sbg4Arq26c5Zp66ayGl1bJUi5kgy60OxJbk+9DiUWHIqHIptuewFKlBt35KTuxq4z9uepQFVZ7CyTPa9y5jtcsDW3KUdGEdjrR8Vm3Tblew9FdD1QlVWJ6xjTWG3lw7IuhPBprZ6IaLZh2JiiE881YOcLcjLoq21o/tOgtq4Y+NN+BF6VhRPPw7tfm9WRkfKXcbwLvtYvK9PLN9vkWjomWKxyNaMehDvMsKS9kYqhh1iXvxNjX4leanviOjLfZMf+DHrjfZ7JnRd5FuWIBHVYSP+9d4d1vSKTk74tJUju9AFyW6beHCKimYphY4pWrL4haV7GwSe+B9djP8EPHvsOtj1xGH2i+oorkPWh+Vj7V2PcMUXQ2GvRDQWM3Z/QEwnBvDz+t3yKKMLdNli0x2PGEEFYNxSjEUGjCZZ4l79vgj0bQmp7E72O8YzXziTP2xtGZJ0F2qCWDa74Z5VLmiGiiRmrLe1JIPF9ImUIjIhopmPYmKr8Eri3fhUNrttRuFBUjGDg5FF0nhyUj7rmofyLX0fDt76KSotakVb0ZASwWuI3ua6DKf0JzU2JG5QSTJzNFSjRPcIa8jQrMUETbfXAi2KsH7P7XwxjhODdlZjb0NWqrIsbsb6noLNtgj0bo9tDZ/MErkMY/UjtxD/PRM6rbH863hoCu7xA6XrluzZhfSmSj71gE22LQypENPswbEzZfOTkzkeWaRFy3tdqFi6/AWuvz4eaPfA2BhIjKxmZytxwdTvjXfBtqf0JlcXArlj3fET5Czp5kqHNbUGbPNbhMcM3gb/OxW9EqJMl5XHOiBJ28srhdkfglHX2g2KGRIwJ5ZvFhFGlPuWJDiG1PbWn5gJ7CSbzecY/rw0uc5u2TTxRY/WhXs75MJXVJx+rLGMNc4j5HtA9jaKXuS39sJQD7aUtU/itEyKi6WfO4OCgvEVOP319fcjNTQxiXFoj6D9xBIHAUSzdtBGlOe/g960HMVBYhKLlV8t9Loz61EikKuOPR4nHL5vMLfEb6HR3cT9PbFiofoITPYmI6GJjz8ZFcwVyVqxBZbUIGqJ8NW4s+9SUgwYREdF0x7BBREREhuIwChERERmKPRtERERkKIYNIiIiMhTDBhERERmKYYOIiIgMxbBBREREhmLYICIiIkMxbBAREZGh+DsbF8H5985g4NUIhl/9E0ZSXxhiWoqs68y48iNLsWD+FbKSiIho9mDYmKKhg/+CN7/XLUtjm3ufC0uLJ/Hz5eK18wdLMr4T5VKYae9hISIi43EYZYrOnXlHro3v/bfPyrWLTISSNG9hJSIiuhwwbEzRnLmTGBqZmyVXiIiIZg+GjSm68pYvINe7GQu/sA7zbv0Yrii8GnOWyqXwWrXuyr+/E1d7Xci7ZZE8KhPxOnQ77OrSqJSSiSEMbZuyyJ4M8fp5e60f6PDCodQ3dmbeN5V6bGyfPYmz6evrWrsQ2FaHQK/cSERENEkMG1M0+O8/RN+O5zAUHgTmX4N5t30KC++Ry22rcUX+fLz/cgcGdjyC3n8f644dVW7qTqAhiGBQLCVoEyEirgtt8MltLXDBC09rFKayegQbKoB1LrQo22oKM++bpLMRjgPF6jHqfrF5ISn1bjTB26FtIiIiuhAMGxfDmV6c++Uf8N5Tv8LAzqfwrm4ZeLwD7/3yJM6fGZE7Z9DZrEQCFyrVsCAUoEaEiDilHJ8oasL6UptcT2cC+y6xwNYRRo8sapTAs9ePis3lylEaU5kbrnWyQEREdAEYNqZovq0Y827Ow5z5siKdRVfjQ8VFWGDLkxUZWC3xm3w6+uENhycka9Mbd9+8ctQ3AE51H/2QjQ2WJXKViIjoImDYmKLhnkFccdedyN3zDeT/7EEs+bEL1/yztuT964P4sKh7tAZ/duvVeL9nnCdXusNJcyuiJyNyTQsPjkiVHBoJosWduWdjwvsW1mj7iNARn9cRQvi0uiL1IMxhFCIimgKGjSk6F/ktBrb9EG9+bgd67noQpz/nxZv/W1t6Nz6I12RddNtzGIyM8ehrYQkqOrxolhM8xbyLZl2PRE8kBJs5X5aiOHQgc89G5n3FvJDEJNK4+JCKNuTi35uYUBptbYJ+5ggREdFkMWxM0WQefZ2TvUCupVOAmn0uRGq1oQ+7vQ0lujkbBdU+mD0Ouc2DsFXXW1FYqU4CjT2NMua+MeK3OdTtyrKpHcX7apQrEHM06uGzam2JbR5Ucc4GERFNCX9B9CI4P9iDdzt7MfLGSYz0DMpaSfxcuTkf8wpXYOG0/Lly0RviAbbWo3ycKSdERETpMGzQOBg2iIhoajiMQkRERIZizwYREREZij0bREREZCiGDSIiIjIUwwYREREZimGDiIiIDMWwQURERIZi2CAiIiJDMWwQERGRofg7GxfB+ffOYODVCIZf/RNG9K9tFcTPlV9nxpUfWYoF0/LnyomIiKaGYWOKhg7+C978XrcsjW3ufS4sLb5alqYm/hr5avH6tOlnul8/ERFNHIdRpujcmXfk2vjef3uMV8wTERHNUAwbUzSZV8xjbpZcISIimj0YNqboylu+gFzvZiz8wjrMu/VjuKLwasxZKpfCa9W6K//+TlztdSHvlkXyqPTE0ILdbteWPV2yVtHZmKi3N0K3BV17YvV2NHbKSlUXGuPH1CHQK6t7A6hT2gjEz6VtS5xbt69C3759WwCpU1JUapux/XTXp69Xju1SzlHXmrYFIiKawRg2pmjw33+Ivh3PYSg8CMy/BvNu+xQW3iOX21bjivz5eP/lDgzseAS9/667i6dSAoXjQDFagkEExRKbyyCCRi3gk/UtbotWLzQ70VYUq7fBvzcWBsRr4Z1Ag2xrXzHaN+lDih/tcMvjAO8mOzz68q5YO11og09rI9gCF7zwjAoLSqjZ1I7iffJcwRpoV55SvxVo8oTULURENLswbFwMZ3px7pd/wHtP/QoDO5/Cu7pl4PEOvPfLkzh/ZkTunMESC2wdYfTIYkzXQT8qGmI3cMBUVh5fR6UPNYXaqumm4sTxnc1KLHChUm5D3noUr4sgHM86FagqM6lr6nGp5fh1FKAmPoHThPWlNrmulw/LuhDCp2VRirY2wV9ZhfI8WZFXDrcSiIiIaPZh2Jii+bZizLs5D3Pmy4p0Fl2NDxUXYYEtdudNQ7kZ1zcAzqShiCjC3TZYlqiFseVZYJarqg4vHPGhDQe8HaMDwUToh3YcaXsmTCjf6QNqtX30Qzk2c75cIyKi2YxhY4qGewZxxV13InfPN5D/swex5McuXPPP2pL3rw/iw6Lu0Rr82a1X4/2ecZ5cKazRhhxE6IjPj7iwkCB6PbRhjcQS6wWZqPjjqfJ4MVSTXgFq1H1E6EjM+QhFkvtpeiIcRiEimo0YNqboXOS3GNj2Q7z5uR3ouetBnP6cF2/+b23p3fggXpN10W3PYTAywUdf40Mq2tCFvzYx3yLaGoivZ1RYgopmZ8qE0ckT4SDROxHFoQOJsCAmjo6e7JkYUlGHY5qbkiamNjXLdSIimlUYNqZoMo++zsleINfS0D9xok6s1OZpmMrq0eKOyOEVOxwHxC19PAWo2edCRA5tqEumJ0nGUFDtg9njkG14ELam69nQP/XiQHtpi9aDog4LmdXJp+q2XUAV52wQEc1K/AXRi+D8YA/e7ezFyBsnMdIzKGsl8XPl5nzMK1yBhbP858rFsIx46qVeTkYlIqLZgWGDPjAMG0REsxOHUYiIiMhQ7NkgIiIiQ7Fng4iIiAzFsEFERESGYtggIiIiQzFsEBERkaEYNoiIiMhQDBtERERkKIYNIiIiMhTDxkU0fPqPCLxwFAOiMNSNwDNt+O2JdzCsbiUiIpqdGDYulvB+bHv0X/Hs/qfQsPcpPPEvz+DZ0PPKf3+F/5a7GKI3gDp77K2w2kvRMr7tVbzsbc+474wdTT1H4tXxNNOM878bIqIpYti4WHJMWKKuDOJE1xH8NnxGLWHOO+iLjqC/b+wejvSvbFeIgDDhN7YWoCYY1N66OhWp5xRvcA3WozxPli+YfENspsCjhhre9AyXFFCFi/S/GyKiDBg2pqrnOfzjN78D1yPPoVutuAILl1+LwuXzkSWKA0fR5P02vrbrcTzbo+6QVkFRBUIHDo0KFV0H/ajYXI6Z8+oyG2zdTWl7Sbqe9iIk14mIaOZg2JiiVw4dRt/IIAZGRGkRiu75Mrxb7sYXt3wVO+9Zg8SbW87g8JEx0kZhCSo62nFIfxNW/gJtaq5AifIXp3hjql30CqiL/q9SPdFzoB/ukD0JGY4RvSnxNmVPhnqeWj/Q4YVDqVd7GVL/EpY9ELFj9T0y6vF7unRtpw6/mFFcCrS/lBKrxGftdsFVKctS0ufW94gkXUPi2vSfKX5dKdeb3HOS8h2lDDVlPH/ScWmGmGLfmWgvzfHa9xRAYJvYFrt+fZvp9td/r6N7gNJ+drVN5fpateuoe/wR2DeJUOeHM76f3Cft/26SP1v6cxARjY1hY4pW3XovblshC9eVoPIj82UBWPiRW1F+nbaeu6Ea3/pUvlZIqwAllaGkm3D0pXaEKkuULVEcihSjJRhEUFl8lcqNIunGl05UuZE5gQbtmGCwBG0iRMR1oQ0+ua0FLnjhUW4eprJ6BBsqgHUu9Xyju9aVG5FyszLH221B8QFH8o2v2Ym2Im17ixvw7koeBrKUVcHsaVZaShC9GihdD4ssq5QbteOA7nPDmbg5bmpH8b7YNdQo35F2Q3bGP1Mw/ir76EvhxL7KZ/PXxm7u43xHGc+felymISbl3+lgidxH+Y67Y8dLze3AVrFNXL/WZsTdIvfXn0/Sfa/BfS5EahNBIPmzp/6bhOCNaNdR/4X71GNtqIBPlEe97j/ls+0rRvsm7fvK9P0SEY2HYWOqrsxDoXmRLGTWFzmKU0OykEHBHS4gPpSiBIwDIVQUiduoCeXViaEUMeQyrs5mJT64UBkPCwWoESEiTilXi7YFE9aX2uT62KKtTfBX+nQhRLm2zcoN/KAuOui2m24qhq0jjOQ+HRGs/GiK30iV4NNcgaqkm5dy09ubPISkDjVFREv5sKwLIXxaq48xLTcD3WH5/SWYymoSYUD0IMnVsb+jsc5vgsUKRE6mnimVckPXfcfie0oaKqusSlyXvBa37jtI/t+DQv+955WjKh5Ou9DsAVx3JP97Jq7Ppts2jtTvJG89itdFEFZCTabvl4hoPAwbU3TiuQbsfEFOBn21Dc1/GtTWFQN/2o/Aq7Jw4nl492uzOjIS/49d+X/1zerQxSG06/+fvr47PqmHYgxWS/xGmY7aNS/bdHgmPlvCZk7poVligS3TTSjPAuUWNYr+RioCTMRdqdzqR/PXJrrt1c+tnke5ce/0AXJb/C/4whq0lLarwz/Jk2r1wwJOJH1743xH6c+vXH+11nsg6ic8nCC+J7maVuq1iO9uVFBLyDfrWwvBuylxreLfUwtGF0AOoWltOeDtkMEu4/dLRDQ2ho0pWrH6hqR5GQef+B5cj/0EP3jsO9j2xGH0ieorrkDWh+Zj7V8pfw6PSfuLVPQSiCEUMayg3nxE0NhriXfnq8McE5ESAKInI3JNCxqOSFW8S7zFPbGeDWHUTex0GKFxbtqjiL/MrSJYib/KzSm9GjHKX+TxoRK57Iz1NGhPUASDInQkhhPUYSDxecRNUR1qEkGjCZZ4O75Ez4Ywxnc09vlF4BF1aYaRMhnve0oNbL1hRNZZkGnwrScSgnl5rDVtWCTpWuO9KpNUmRgqiS3xnqpR3y8R0fgYNqYqvwTurV9Fg+t2FC4UFSMYOHkUnScH5aOueSj/4tfR8K2vojJpQkJ66rBDcxM8B4Dim7QbiXoD1N2kxBMq41InnMpeEpW4qSd6L8SNKtFDoQ3ZTIR2fU7dzVUON6jDPZMjhiX8tU741XkpqUTwGj3fY7RxhlTEDRtmWOLDFW2Jno0xv6OJnl83pBKbFCq3iDkb+qGixtoxvid5LWLeTExsHks8nCj/u4hP1lQCqFNOHhbBSwxLjT+PZwLEdST9+6bHIRUimgyGjSmbj5zc+cgyLULO+1rNwuU3YO31+VCzB97GQGJkZXzqGHkIIRRjvbxBmsrc6uTCWBd5W/Lf5hkof/mrkwhj3eFtKNH1iBRU+2D2aMMAdrsHYauuZ6OwEmLCaPxpFD3xmxtJ7ToQ3nyBv9EgzrMu83wC8Ve0z6rv0o9dj35YxIH20hb1/PphIXst4BO9EMr1ut0R9ckLtf6g6AOIGfs7ynx+MYkyUScmTaafLFmh/Ct65H7a5M/M35PoqdH/m9jRZG5JbreyGNglz1sbgWufNjFWEMM6+v+NpH1CJkad76F/GkUv9TtRFv2TSrG62PerHURENKY5g4OD8hY5/fT19SE3NzGIcWmNoP/EEQQCR7F000aU5ryD37cexEBhEYqWXy33ocuduKF64J76kxail2NTGFXySZmpig97XejQCBHRJcSejYvmCuSsWIPKahE0RPlq3Fj2KQaN6UQJCB5PYviKiIguDoYNmsX0wzHKov5+yMX4WXYiItLjMAoREREZij0bREREZCiGDSIiIjIUwwYREREZimGDiIiIDMWwQURERIZi2CAiIiJDMWwQERGRoRg2iIiIyFAMG6miITy6K4hT52SZiIiIpoRhI5XJho0fa0fdtycfOP74bCOa2t+UpQ/OpTovERHRRDBspLH0lgdRX9SOb+9qZw8HERHRFPHdKGM4dcALb4cNrq3FWDpXVmbQ9mQjOt+WBXwY/+OLt+EGvIyf/+DXeE3W5qx2oKr4GmVN1L8E0+ocdB55LV7f274X/iNaIzmrPwnz8ZeAv9mMksVqldqD8fwJbV07Rpy3Jc15iYiILh8MG+OIBY6vu4sx3ovHRRh4aVEsUCi6nsXPcRv+V4Gy/sZ/oqklDLNDhAcZQlZ8El+87fr4vj94yYSKz34C4qWjWvAACtX9ZfnMTXL/N9WQEb2pRm171HmJiIguIxxGmYChs+/JtUkqkEFDWHw9zNlyXZWNQpsMGiI8vPQaPnyTFjSEvOK/QWF8/5dxUASP+P7X4IY/z8bbfZynQURElz+GjTGIXo0H/+Oj+PrX7eP2aqQneiAa8YMfiEU/3JFONkxjdky8jc6WWFuN6nBL/xmGDSIiuvwxbGQQCxoPbi8fd75Geomhji9+USwOXU9FOm8jmpQd3kQ0KZyI+RixtuQSG4IhIiK6jDFspDH1oCGIsKDrrXjjZUQy9mxowyKvvfSf6JU1ve0vxSeWAtfjuhWv4flnX5ZlIiKi6YMTRFNF21Hvewf3fv0CgoY6CbQT/bGnQsSkz1/LyJD9YaW2Hyb16RL5NIqc/BmT/LRJ6tMoWk9JYigmOz55dNR5tR2IiIguCwwbly0RSI7iOoYHIiKa5jiMcpn647Pi0dhrGTSIiGjaY8/GZUL/g16q7ML4b24QERFNZwwbREREZCgOoxAREZGhGDaIiIjIUAwbREREZCiGDSIiIjIUwwYREREZimGDiIiIDMWwQURERIZi2NAZPv1HBF44igFRGOpG4Jk2/PbEOxhWtxIREdGFYNiICe/Htkf/Fc/ufwoNe5/CE//yDJ4NPa/891f4b7mLMaIIbKtDQL7utWuPHfY9XVrhstWFRrtyncrS2KmtN3bKTURERCkYNmJyTFiirgziRNcR/DZ8Ri1hzjvoi46gv++D6eEoqA4iWF2gFXoDqLM3Krf2y0u0tQn+Sh+CwSBqCgtQo/5XbiQiIkrBsNHzHP7xm9+B65Hn0K1WXIGFy69F4fL5yBLFgaNo8n4bX9v1OJ7tUXcghc2cL9eIiIjGNuvDxiuHDqNvZBADI6K0CEX3fBneLXfji1u+ip33rEHizStncPjIJNKG2iuhDTXYU3onoq11st6OutbkNsUwSl1rFOhshH2TFyH44VT3U+qEpHZ19Qq13T0BBLbpzymGadLtnxgKURfd0I3WTpc2pKNuTx7mcXhCCHkcSr04h2gnsV1IHBcbZrn8emeIiOiDM+vDxqpb78VtK2ThuhJUfmS+LAALP3Iryq/T1nM3VONbn5roX/PKDXZTO4r3BdWhhmAD4NwWUG77CiVEOA4Uo0XUK4sbTfB2qAclK6xBcJ8LNlTAp+xXX2ZSKkW7XpgbZLvBFhQfcCTPl2huB7aKbTUoUIOGA+2lLXJ/H4rVnUS9ExF3rD4IH5xJwQXNTrQVadta3IB3l3b9YpinxW2DTT1WnCOZCCpOpbVYuyUHnUpcIiKi2YzDKFfmodC8SBYy64scxakhWRiHNqehCuWx98MXlqCiI4wecZPf60fF5nKI6CCYytxwrZOFccTmSiTmR5hQvrkC/oO6fgP9eXsPoR0uuNWgIhSgXKx3NsObVK9sucMFHDikBSJBdx7TTcWwqdc/ni40ewDXHYkIUlDtU+ISERHNZrM+bJx4rgE7X5CTQV9tQ/OfBrV1xcCf9iPwqiyceB7e/dqsjglpdsaHEux28dd9BGF1qMEGizYT9YKMmiuxxAJbdzgREvROhxGyWuLBJklqfZ4F5kyBQmyTq+MzwxILO0RERIpZHzZWrL4haV7GwSe+B9djP8EPHvsOtj1xGH2i+oorkPWh+Vj7V1Z1r4nQhhm0oQRtqZc9DiGET6u7SD0IpxtGySAUSYkDYwUKIVMQSa3vDSOyzoKpT/uMhSpJtCtXiYhoduIwSn4J3Fu/igbX7ShcKCpGMHDyKDpPDspHXfNQ/sWvo+FbX0WlRa1IT/eYqhh2gMeTNGlSY8L6Uhv8e+X8DYU6NCLXx6MOZzQ7dXM05LBMUerMCUkdvvHCo5sUGhDro+qVLU97gdL1mUPLhBSgpDIE79OJYR3RbkiuExHR7MSwgfnIyZ2PLNMi5Lyv1SxcfgPWXp8PNXvgbQwkRlYmJq8c9Q1meDclnsqIPe1hKquHz+qFQ9Z7UJV5zobSTlWl7mkU0e4+FyK1sXYdCG8e6zcuxG9g+GBWnxwR+zsRXi7iRGq9HU3mFjkJdWoKqlvg6k4MIbUVcc4GEdFsN2dwcFDeYqefvr4+5OYmBkGmZgT9J44gEDiKpZs2ojTnHfy+9SAGCotQtPxquQ9Nmujx2QW4dyYmxRIR0ezCsEEGSjx6ezF6TYiIaHpi2KCLSvygl7NZFgTxs+axn18nIqJZiWGDiIiIDMUJokRERGQohg0iIiIyFMMGERERGYphg4iIiAx1USeIDp/pxuGDIfz2D4fx36/3Y0D7CU4gayFylv0F1nxsLWxFa2BdlCU3TA0niBIREV3+Lk7Y6H8FgR//CIH/6ld/4jsrZwVW3RD7BU5hAD1/fAUn+tWtyPloOe79XDlW5WhbLxTDBhER0eVvymGj7zd78N2mw+ifm4PCT27CXX+7BkuvlBtTDZ3C4V/8DPt+3Yn+czlYU/UVVH/8wsMCwwYREdHlb0ph49T+emx/9gQWXnc7/v7vymFNdGWMbaAbgR/+E555dQArbvsm6m5dKjdMjlFh49TB/wf/tfivYf/IVbKGiIiILtTcb3zjGw/K9UkZ+P0e7PjJK1hgq8b2LcVYrJuGMfz6YTz3b0/B/5Of4d9eOIzunn58aOmfI/+qudoOWSZc+/FifPjNQ3j+V/+J15cX46alk5/HcfbsWSxcONGEMzHvhL6Pe7ytCLYdwdzC9fjYNfPklosn2lqH//n4e7j9lmuxQNYldKHRvgkv3vR53LxYVhEREU1jF9azceYAvvv1fTj9sXvwrb9bl5ibcb4fHT/+Np4I9avFrKtylJvpWfS/q83VWFpSDfdnCpPmcnT88B/xxB+WYNO3v4LSRbJ6gi52z8apA3vQvugOfPTwbnj/4zjC5/8c93zz66i63sAeDvGisk1hVAVrwB/1JiKimegCHn0dRsdP96Ebhbjrs7qgoeh+6rtq0Miy3IL7dj6KR73fwXe8yn933odbLMrNvO37eGT/Kbm3sBDrPnuX0lI39v20Q51ceqmcOvAI6h79NRof3oOe2+rxo50bce17x/HE9m+j6eV35V5EREQ0WZMPG2cO4Jd/AJb+7V0o0ieNUwH8ONgHrLgddV+5C6t0j7dmLVqFu75Sh9tXACee/SECSXmjCHf97VLgD7/EgTOy7gOmBY0OhEXhvVcRfLEX7+VuwD/cmod5Fxo4RI+F3Q67WLYF0NVah7rWqLpJDKPY93QBnY2wb/IiBD+cyn7adjGMUodAr7qrSrzcTG1HWRo7xfZGZS+Feg5lXbQjt8fOEaM/1h47TpDHBsS1qO1q1fr9U9siIiK6EJMOG6cOvoATsOKTn0ie1Hnqdx04hRyUVpZjabpWP7QU5ZWlyh6ncPj3SijRWfqJTyotnsALB/Up5IPx3v/7z4mgoRpGKPwG/rRvN/6ruB4/f+w+VFwpAsd3k0PSmJRAsKkdxfuCCAaVZSvQ5AnJbTqFNQjuc8GGCviU/dK9hl0EEyd8WjvKUnLQqUQTPSWoHCzRtittweOJBxX12G4XWuSxwQbAqQSfRITwox1udVtNYeq5WlB8wBEPIURERBdqkmGjH690KXfcFatRmPIbGT2vizvxSqxaqZXTWrlK2QM4cTKilWNyCrF6hRJYul5RzvDBeu/MG+iR60nOHUew/SguZAAl2toEf2UVyvNkRV453G6bLExGF5o9gOuOxGyOgmqfEk30lKASe4V73noUrwshfFoU5LFbyxGPMIWVcCnx4lC816QCVfGAk3ouE9aX2hA5yd4NIiKamkmGjT68KTollq1A6rTMrCvE/x3G2SG1mN7QWXVexsIFqU+Q5GLFMuU/fW8qZ/hgXV36FTzxhWuhf+bEknMVrsr5Mxzd/104tjwC/5CYKPoVlE/iCV2bOV+uTZUZllhoGZcJFqtcVaUeK7bHwkg6IXg3JYZRHJ4QQpG0UYyIiGjCJhk2zqDvDLB08TWynLBqVaHyfztx+HcDWkUaA787rOwBLFk2+kZ8zWLlTn6mTznDB2/prdt1gePPUfHJP4el6G9wrSjOu7AnUlJv0j2RNMMoExJBWDd/A71hpWaiUo5FFOFuGyxLZHEUbThHG0aRS6zXhIiI6AJNes5GJll/VYQ1C5W48bMncDBd90TfQTzxMyVqLFyDvy6a4u+UGyAROI7j0a/VouaBp3F0MkEjNllTWTXdVAxbc1NikqeyralZrk9KAUoqQ/A+HZ/Wia6nxYTSiZDH7tLN0ehshhfFWJ+2p0Ts74dTTFwlIiK6iCYZNhYhdxFw6o03ZVnnyjWo+uwaLHy3E09u344ng+JdKP3o7z+Bw/v3YPv2J9H57kKs+WwV1qT5OfM33zilNJ+rnOHSiQUOvN2Lo0MfvvDf2MgrR32DOTEksQuoyjRnQ9m3StzkMzz9UVDdAle3Mz600VaUOmcjs4LqIHxWLxzyWPteC1p26uZwpEg9lz3lqRgiIqILMckf9RrGwX/6BzzZdzu++c1ypJvCcOrZ7die9FsaMVlYcev9cN9mVdZS9SFQ/w08k/NZPPr3RWm2pzedfq5cPFLaVqQ99TElogdFCS/uMUIDERHR5WSSPRtZKLxBPDZyGJ2pkyuGT+CXj35VCxofykLuyjVYZ1unLmtW5iLrQ8M4sf+7+PLDP0N36rSO/k4cOQGsuKFwwkHDSEuLPn1x34vS2QhncwVKpho0EEVglxcoXc+gQURE08bkf678zC9Rv+1nGPjrOuy4UwkewvlTCDy8Hc8ogSH3E9X4ysY1yElNDcP9eOXZf8L3/+MEhnPWofqb96hzPIRT+7dj+7NZuGtnHW6ZxDjKZfvWV9H7oP5YV4wNrn31iUdhJ0H0iDj18z0qfZy0SURE08oFvBtlGIf/z9ew53DifSav7P0yHvnPib3Btf+3e7D9R4eBG+V7VQY6sOcfn8ArN1Tj4f97zaR6NviKeSIiosvfBTyNkoU1d8v3mfwggFO9v8TPlKCBj34W903gVfE5a6tQeeNCDPz+GQS6TyHwyBM4PGjF7Y7JBQ0iIiKaHi7sra8K8Yr5f/zhYQxnZWF4eAFu+cp3cFfSD0qNoftn+Op3f4mz6rFKePm7b6FaCSCTxZ4NIiKiy98F/87Gwhur4d64ClnD4jdB83HNZO75udcoR0AJGsNYcZv7goIGERERTQ8X3LMR0/+Hfdj9fw7g1LkcWD9xFz535zosTfM7GqqhUzj8i33YF3wF/XOXouizf4/Prr3wngn2bBAREV3+phw2VP2vIPDjHyHwX/3qu0+yclZg1Q35SPRXDKDnj+JHvtStyPloOe79XDlWTfGHRBk2iIiILn8XJ2zEiJ6L4K9x8A+H8d+v92NAZAshayFylv0F1nysCJ+0r8nc8zFJDBtERESXv4sbNj5ghoWNsxH88ft+fKjqy1g1iTe9EhER0WgX7UVsM8X5U/+Jjr/7Ak7/Wyt6vrIXr52TG4iIiOiCMGzo/X9K0LhnOwZi73CP/DPCz41+ORoRERFNHMOGzplQAINnZUF679l28MWnREREF45hQ+ft134v13S6wuh/T64TERHRpDFs6CyyfkKu6c3DFXPl6pi60GivQ6C1EXa7XV0aO5XqzpSyIOq2BaAfoBEvXBPbo611sO/pUsvacUqbatdKFIFtsXVBnE/XplpuVP4vERHR5YVhI+a9U3gL12Lh/yXLKiVo1NixYkJhQwjBGylBMBhEsKEC/lolLBzUl2UYKCxBRUc7DumCQ5v+FfTNTrQVKccox7W4Ae8uEUxMWF8KtL8kI0pvGFhnQ+SkLHe2wV9ZAr4PloiILjcMGzHzlmLF9VdjJD5nYx7m3e/Fx/7XRybxJdngukPe7kWgGFWOIKwGjAKUVIYQPq1uGR0UKn2okcHDdFMxbB1h9Ij15WaEDhxSe0SiL7UDpcVArHwygooiRg0iIrr8MGzofGhpGf7quw7tS/nIJ/Bnf7ECVy9QN110BUUV8B8U/RxRBPZGEqEkVZ4FZrmq9YiI4BHFoQNmlJStRzFiZcCyRO5HRER0GWHYSDF/9d9h1T/cgIX3fhkfXX21cV+QCA7NbejqPYR2JTKsz5P1YxI9In60dfYgbBU9ISZYrLI84TaIiIg+WAwbaSz5n1sw77UIzsuyMWRweDoMlK5XYsPE5JttiOxtQsQs3pur9ZCo5Um0QURE9EFi2Ehn3g348IIunDD410PVoZTmCIpvmnhMEHM40IHEMYUlMHeEYF7OqEFERJcnvhslk94/IowbYOHQBBER0ZSwZyOTvKX4swk/8kpERESZMGxkZMKipN/cICIiogvBsEFERESGmvZzNoiIiOjyxgmiREREZCgOoxAREZGBgP8fKS3NPPr/KiwAAAAASUVORK5CYII=;" parent="1" vertex="1">
                    <mxGeometry x="-252" y="26" width="436.77" height="957" as="geometry"/>
                </mxCell>
                <mxCell id="wTXNso5YThmu71ctxc-w-2" value="" style="verticalLabelPosition=bottom;verticalAlign=top;html=1;shape=mxgraph.basic.patternFillRect;fillStyle=diag;step=5;fillStrokeWidth=0.2;fillStrokeColor=#dddddd;fontSize=16;fillColor=none;strokeColor=#7EA6E0;strokeWidth=3;" parent="1" vertex="1">
                    <mxGeometry x="-190" y="200" width="210" height="32" as="geometry"/>
                </mxCell>
                <mxCell id="wTXNso5YThmu71ctxc-w-3" value="" style="verticalLabelPosition=bottom;verticalAlign=top;html=1;shape=mxgraph.basic.patternFillRect;fillStyle=diag;step=5;fillStrokeWidth=0.2;fillStrokeColor=#dddddd;fontSize=16;fillColor=none;strokeColor=#FF8000;strokeWidth=3;" parent="1" vertex="1">
                    <mxGeometry x="-190" y="237" width="210" height="103" as="geometry"/>
                </mxCell>
                <mxCell id="wTXNso5YThmu71ctxc-w-4" value="" style="verticalLabelPosition=bottom;verticalAlign=top;html=1;shape=mxgraph.basic.patternFillRect;fillStyle=diag;step=5;fillStrokeWidth=0.2;fillStrokeColor=#dddddd;fontSize=16;fillColor=none;strokeColor=#FF8000;strokeWidth=3;" parent="1" vertex="1">
                    <mxGeometry x="-190" y="377" width="210" height="38" as="geometry"/>
                </mxCell>
                <mxCell id="5" style="edgeStyle=none;html=1;" edge="1" parent="1" source="wTXNso5YThmu71ctxc-w-5" target="4">
                    <mxGeometry relative="1" as="geometry"/>
                </mxCell>
                <mxCell id="wTXNso5YThmu71ctxc-w-5" value="" style="verticalLabelPosition=bottom;verticalAlign=top;html=1;shape=mxgraph.basic.patternFillRect;fillStyle=diag;step=5;fillStrokeWidth=0.2;fillStrokeColor=#dddddd;fontSize=16;fillColor=none;strokeColor=#B5739D;strokeWidth=3;" parent="1" vertex="1">
                    <mxGeometry x="-190" y="627" width="210" height="211" as="geometry"/>
                </mxCell>
                <mxCell id="wTXNso5YThmu71ctxc-w-8" value="データベースから値を取得するために使用します。" style="whiteSpace=wrap;html=1;rounded=1;arcSize=0;align=center;verticalAlign=middle;strokeWidth=2;autosize=1;spacing=4;treeFolding=1;treeMoving=1;newEdgeStyle={&quot;edgeStyle&quot;:&quot;entityRelationEdgeStyle&quot;,&quot;startArrow&quot;:&quot;none&quot;,&quot;endArrow&quot;:&quot;none&quot;,&quot;segment&quot;:10,&quot;curved&quot;:1};fontSize=14;fillColor=none;strokeColor=#FF8000;" parent="1" vertex="1">
                    <mxGeometry x="40" y="227" width="380" height="30" as="geometry"/>
                </mxCell>
                <mxCell id="wTXNso5YThmu71ctxc-w-9" value="" style="startArrow=none;endArrow=none;segment=10;rounded=0;fontSize=14;exitX=0.691;exitY=0.178;exitDx=0;exitDy=0;exitPerimeter=0;strokeColor=#FF8000;entryX=0;entryY=0.25;entryDx=0;entryDy=0;" parent="1" source="wTXNso5YThmu71ctxc-w-3" target="wTXNso5YThmu71ctxc-w-8" edge="1">
                    <mxGeometry relative="1" as="geometry">
                        <mxPoint x="-10" y="277" as="sourcePoint"/>
                    </mxGeometry>
                </mxCell>
                <mxCell id="wTXNso5YThmu71ctxc-w-11" style="edgeStyle=none;rounded=0;orthogonalLoop=1;jettySize=auto;html=1;entryX=0.728;entryY=0.702;entryDx=0;entryDy=0;entryPerimeter=0;fontSize=14;strokeColor=#FF8000;endArrow=none;endFill=0;" parent="1" source="wTXNso5YThmu71ctxc-w-10" target="wTXNso5YThmu71ctxc-w-3" edge="1">
                    <mxGeometry relative="1" as="geometry"/>
                </mxCell>
                <mxCell id="wTXNso5YThmu71ctxc-w-10" value="データベースから取得した値を保持します。&lt;br&gt;DBのテーブルと１対１で対応します。" style="whiteSpace=wrap;html=1;rounded=1;arcSize=0;align=center;verticalAlign=middle;strokeWidth=2;autosize=1;spacing=4;treeFolding=1;treeMoving=1;newEdgeStyle={&quot;edgeStyle&quot;:&quot;entityRelationEdgeStyle&quot;,&quot;startArrow&quot;:&quot;none&quot;,&quot;endArrow&quot;:&quot;none&quot;,&quot;segment&quot;:10,&quot;curved&quot;:1};fontSize=14;fillColor=none;strokeColor=#FF8000;" parent="1" vertex="1">
                    <mxGeometry x="40" y="277" width="370" height="40" as="geometry"/>
                </mxCell>
                <mxCell id="wTXNso5YThmu71ctxc-w-15" style="edgeStyle=none;rounded=0;orthogonalLoop=1;jettySize=auto;html=1;entryX=0.843;entryY=0.474;entryDx=0;entryDy=0;entryPerimeter=0;fontSize=14;endArrow=none;endFill=0;strokeColor=#FF8000;exitX=0;exitY=0.25;exitDx=0;exitDy=0;" parent="1" source="wTXNso5YThmu71ctxc-w-14" target="wTXNso5YThmu71ctxc-w-4" edge="1">
                    <mxGeometry relative="1" as="geometry"/>
                </mxCell>
                <mxCell id="wTXNso5YThmu71ctxc-w-14" value="コントローラーから呼ばれ、業務処理を担当します。" style="whiteSpace=wrap;html=1;rounded=1;arcSize=0;align=center;verticalAlign=middle;strokeWidth=2;autosize=1;spacing=4;treeFolding=1;treeMoving=1;newEdgeStyle={&quot;edgeStyle&quot;:&quot;entityRelationEdgeStyle&quot;,&quot;startArrow&quot;:&quot;none&quot;,&quot;endArrow&quot;:&quot;none&quot;,&quot;segment&quot;:10,&quot;curved&quot;:1};fontSize=14;fillColor=none;strokeColor=#FF8000;" parent="1" vertex="1">
                    <mxGeometry x="40" y="390" width="441" height="30" as="geometry"/>
                </mxCell>
                <mxCell id="wTXNso5YThmu71ctxc-w-20" style="edgeStyle=none;rounded=0;orthogonalLoop=1;jettySize=auto;html=1;fontSize=14;endArrow=none;endFill=0;strokeColor=#B3B3B3;exitX=0;exitY=0.5;exitDx=0;exitDy=0;" parent="1" source="wTXNso5YThmu71ctxc-w-16" edge="1">
                    <mxGeometry relative="1" as="geometry">
                        <mxPoint x="-40" y="360" as="targetPoint"/>
                    </mxGeometry>
                </mxCell>
                <mxCell id="wTXNso5YThmu71ctxc-w-16" value="画面の入力内容を保持します。" style="whiteSpace=wrap;html=1;rounded=1;arcSize=0;align=center;verticalAlign=middle;strokeWidth=2;autosize=1;spacing=4;treeFolding=1;treeMoving=1;newEdgeStyle={&quot;edgeStyle&quot;:&quot;entityRelationEdgeStyle&quot;,&quot;startArrow&quot;:&quot;none&quot;,&quot;endArrow&quot;:&quot;none&quot;,&quot;segment&quot;:10,&quot;curved&quot;:1};fontSize=14;fillColor=none;strokeColor=#B3B3B3;" parent="1" vertex="1">
                    <mxGeometry x="40" y="340" width="282" height="30" as="geometry"/>
                </mxCell>
                <mxCell id="wTXNso5YThmu71ctxc-w-23" style="edgeStyle=none;rounded=0;orthogonalLoop=1;jettySize=auto;html=1;entryX=0.719;entryY=0.26;entryDx=0;entryDy=0;entryPerimeter=0;fontSize=14;endArrow=none;endFill=0;strokeColor=#B5739D;exitX=0;exitY=0.5;exitDx=0;exitDy=0;" parent="1" source="wTXNso5YThmu71ctxc-w-22" target="wTXNso5YThmu71ctxc-w-5" edge="1">
                    <mxGeometry relative="1" as="geometry"/>
                </mxCell>
                <mxCell id="wTXNso5YThmu71ctxc-w-22" value="画面にどういうものを表示するかを書いています。" style="whiteSpace=wrap;html=1;rounded=1;arcSize=0;align=center;verticalAlign=middle;strokeWidth=2;autosize=1;spacing=4;treeFolding=1;treeMoving=1;newEdgeStyle={&quot;edgeStyle&quot;:&quot;entityRelationEdgeStyle&quot;,&quot;startArrow&quot;:&quot;none&quot;,&quot;endArrow&quot;:&quot;none&quot;,&quot;segment&quot;:10,&quot;curved&quot;:1};fontSize=14;fillColor=none;strokeColor=#B5739D;" parent="1" vertex="1">
                    <mxGeometry x="40" y="650" width="405" height="30" as="geometry"/>
                </mxCell>
                <mxCell id="wTXNso5YThmu71ctxc-w-25" style="edgeStyle=none;rounded=0;orthogonalLoop=1;jettySize=auto;html=1;entryX=0.881;entryY=0.375;entryDx=0;entryDy=0;entryPerimeter=0;fontSize=14;endArrow=none;endFill=0;strokeColor=#7EA6E0;exitX=0;exitY=0.5;exitDx=0;exitDy=0;" parent="1" source="wTXNso5YThmu71ctxc-w-24" target="wTXNso5YThmu71ctxc-w-2" edge="1">
                    <mxGeometry relative="1" as="geometry"/>
                </mxCell>
                <mxCell id="wTXNso5YThmu71ctxc-w-24" value="画面からやってきたリクエストに応じて処理を制御します。" style="whiteSpace=wrap;html=1;rounded=1;arcSize=0;align=center;verticalAlign=middle;strokeWidth=2;autosize=1;spacing=4;treeFolding=1;treeMoving=1;newEdgeStyle={&quot;edgeStyle&quot;:&quot;entityRelationEdgeStyle&quot;,&quot;startArrow&quot;:&quot;none&quot;,&quot;endArrow&quot;:&quot;none&quot;,&quot;segment&quot;:10,&quot;curved&quot;:1};fontSize=14;fillColor=none;strokeColor=#7EA6E0;" parent="1" vertex="1">
                    <mxGeometry x="37.5" y="160" width="432.5" height="30" as="geometry"/>
                </mxCell>
                <mxCell id="wTXNso5YThmu71ctxc-w-26" value="&lt;font style=&quot;font-size: 18px;&quot; color=&quot;#ffffff&quot;&gt;Controller&lt;/font&gt;" style="whiteSpace=wrap;html=1;align=center;fontSize=14;strokeColor=#6c8ebf;strokeWidth=2;fillColor=#7EA6E0;" parent="1" vertex="1">
                    <mxGeometry x="-320" y="196" width="100" height="40" as="geometry"/>
                </mxCell>
                <mxCell id="wTXNso5YThmu71ctxc-w-27" value="&lt;font style=&quot;font-size: 18px;&quot; color=&quot;#ffffff&quot;&gt;Model&lt;/font&gt;" style="whiteSpace=wrap;html=1;align=center;fontSize=14;strokeColor=#E87400;strokeWidth=2;fillColor=#FF8000;" parent="1" vertex="1">
                    <mxGeometry x="-320" y="250" width="100" height="40" as="geometry"/>
                </mxCell>
                <mxCell id="wTXNso5YThmu71ctxc-w-28" value="&lt;font style=&quot;font-size: 18px;&quot; color=&quot;#ffffff&quot;&gt;View&lt;/font&gt;" style="whiteSpace=wrap;html=1;align=center;fontSize=14;strokeColor=#A3688E;strokeWidth=2;fillColor=#B5739D;" parent="1" vertex="1">
                    <mxGeometry x="-320" y="659" width="100" height="40" as="geometry"/>
                </mxCell>
            </root>
        </mxGraphModel>
    </diagram>
</mxfile>